<svg width="178" height="151" viewBox="0 0 178 151" fill="none" xmlns="http://www.w3.org/2000/svg">
<rect width="178" height="151" fill="white" style="fill:white;fill-opacity:1;"/>
<path d="M54.7131 58V34.7273H69.304V37.75H58.2244V44.8409H68.5426V47.8523H58.2244V54.9773H69.4403V58H54.7131ZM73.9943 58V34.7273H77.5057V54.9773H88.0511V58H73.9943ZM92.0568 58V34.7273H95.5682V54.9773H106.114V58H92.0568ZM110.119 58V34.7273H124.71V37.75H113.631V44.8409H123.949V47.8523H113.631V54.9773H124.847V58H110.119Z" fill="black" style="fill:black;fill-opacity:1;"/>
<path d="M63.6306 94.9091H66.0276L70.1952 105.085H70.3486L74.5162 94.9091H76.9133V108H75.034V98.527H74.9126L71.0518 107.981H69.4921L65.6313 98.5206H65.5099V108H63.6306V94.9091ZM81.76 94.9091V108H79.7849V94.9091H81.76ZM85.7423 108H83.6457L88.3566 94.9091H90.6386L95.3495 108H93.2529L89.5519 97.2869H89.4497L85.7423 108ZM86.0938 102.874H92.895V104.536H86.0938V102.874ZM97.24 94.9091H99.637L103.805 105.085H103.958L108.126 94.9091H110.523V108H108.643V98.527H108.522L104.661 107.981H103.101L99.2407 98.5206H99.1192V108H97.24V94.9091ZM115.369 94.9091V108H113.394V94.9091H115.369Z" fill="black" style="fill:black;fill-opacity:1;"/>
<path d="M49.432 71.576C50.328 71.576 51.064 71.6987 51.64 71.944C52.2267 72.1787 52.6587 72.536 52.936 73.016C53.224 73.496 53.368 74.0987 53.368 74.824C53.368 75.432 53.2613 75.9387 53.048 76.344C52.8453 76.7493 52.5787 77.0747 52.248 77.32C51.928 77.5547 51.5867 77.7413 51.224 77.88L54.2 83H52.536L49.944 78.28H47.88V83H46.456V71.576H49.432ZM49.352 72.824H47.88V77.064H49.416C49.992 77.064 50.4613 76.984 50.824 76.824C51.1973 76.6533 51.4693 76.408 51.64 76.088C51.8107 75.768 51.896 75.368 51.896 74.888C51.896 74.3867 51.8053 73.9867 51.624 73.688C51.4427 73.3893 51.16 73.1707 50.776 73.032C50.4027 72.8933 49.928 72.824 49.352 72.824ZM61.8783 83H55.8623V71.576H61.8783V72.84H57.2863V76.408H61.6063V77.656H57.2863V81.736H61.8783V83ZM70.3493 79.944C70.3493 80.6267 70.1893 81.208 69.8693 81.688C69.5599 82.1573 69.1173 82.52 68.5413 82.776C67.9759 83.032 67.2986 83.16 66.5093 83.16C66.1146 83.16 65.7306 83.1387 65.3573 83.096C64.9946 83.0533 64.6586 82.9947 64.3493 82.92C64.0506 82.8347 63.7839 82.7333 63.5493 82.616V81.24C63.9226 81.4107 64.3759 81.5653 64.9093 81.704C65.4533 81.8427 66.0079 81.912 66.5733 81.912C67.0959 81.912 67.5279 81.8373 67.8693 81.688C68.2213 81.5387 68.4826 81.3253 68.6533 81.048C68.8346 80.7707 68.9253 80.4453 68.9253 80.072C68.9253 79.6987 68.8453 79.384 68.6853 79.128C68.5359 78.872 68.2799 78.6373 67.9173 78.424C67.5546 78.2 67.0586 77.9653 66.4293 77.72C65.9813 77.5387 65.5866 77.3467 65.2453 77.144C64.9039 76.9307 64.6159 76.6907 64.3813 76.424C64.1466 76.1573 63.9706 75.8533 63.8533 75.512C63.7359 75.1707 63.6773 74.776 63.6773 74.328C63.6773 73.72 63.8213 73.2027 64.1093 72.776C64.4079 72.3387 64.8133 72.0027 65.3253 71.768C65.8479 71.5333 66.4506 71.416 67.1333 71.416C67.7199 71.416 68.2586 71.4747 68.7493 71.592C69.2399 71.7093 69.6933 71.864 70.1093 72.056L69.6613 73.288C69.2773 73.1173 68.8666 72.9733 68.4293 72.856C68.0026 72.7387 67.5599 72.68 67.1013 72.68C66.6639 72.68 66.2959 72.7493 65.9973 72.888C65.7093 73.0267 65.4906 73.224 65.3413 73.48C65.1919 73.7253 65.1173 74.0133 65.1173 74.344C65.1173 74.728 65.1919 75.048 65.3413 75.304C65.4906 75.56 65.7359 75.7893 66.0773 75.992C66.4186 76.1947 66.8719 76.4133 67.4373 76.648C68.0666 76.8933 68.5946 77.16 69.0213 77.448C69.4586 77.7253 69.7893 78.0613 70.0133 78.456C70.2373 78.8507 70.3493 79.3467 70.3493 79.944ZM75.5909 83H71.6389V82.168L72.9029 81.864V72.728L71.6389 72.408V71.576H75.5909V72.408L74.3269 72.728V81.864L75.5909 82.168V83ZM86.2831 77.176C86.2831 78.456 86.0591 79.528 85.6111 80.392C85.1631 81.256 84.5178 81.9067 83.6751 82.344C82.8431 82.7813 81.8351 83 80.6511 83H77.6591V71.576H80.9711C82.0591 71.576 82.9978 71.7893 83.7871 72.216C84.5871 72.6427 85.2005 73.272 85.6271 74.104C86.0645 74.9253 86.2831 75.9493 86.2831 77.176ZM84.7791 77.224C84.7791 76.2107 84.6245 75.3787 84.3151 74.728C84.0058 74.0773 83.5525 73.5973 82.9551 73.288C82.3685 72.968 81.6485 72.808 80.7951 72.808H79.0831V81.768H80.5071C81.9365 81.768 83.0031 81.3893 83.7071 80.632C84.4218 79.864 84.7791 78.728 84.7791 77.224ZM94.6595 83H88.6435V71.576H94.6595V72.84H90.0675V76.408H94.3875V77.656H90.0675V81.736H94.6595V83ZM105.611 83H103.931L98.2665 73.512H98.2025C98.2132 73.704 98.2238 73.9173 98.2345 74.152C98.2558 74.3867 98.2718 74.6427 98.2825 74.92C98.2932 75.1867 98.3038 75.464 98.3145 75.752C98.3252 76.04 98.3305 76.328 98.3305 76.616V83H97.0185V71.576H98.6825L104.331 81.032H104.395C104.384 80.904 104.373 80.728 104.363 80.504C104.352 80.2693 104.341 80.0133 104.331 79.736C104.32 79.448 104.309 79.1547 104.299 78.856C104.288 78.5573 104.283 78.28 104.283 78.024V71.576H105.611V83ZM113.111 72.68C112.545 72.68 112.039 72.7867 111.591 73C111.143 73.2027 110.759 73.5067 110.439 73.912C110.129 74.3067 109.889 74.792 109.719 75.368C109.559 75.9333 109.479 76.5733 109.479 77.288C109.479 78.2267 109.612 79.0427 109.879 79.736C110.145 80.4293 110.545 80.9627 111.079 81.336C111.623 81.7093 112.295 81.896 113.095 81.896C113.564 81.896 114.007 81.8533 114.423 81.768C114.849 81.6827 115.271 81.576 115.687 81.448V82.696C115.281 82.856 114.865 82.9733 114.439 83.048C114.012 83.1227 113.5 83.16 112.903 83.16C111.804 83.16 110.887 82.92 110.151 82.44C109.425 81.96 108.881 81.2773 108.519 80.392C108.156 79.5067 107.975 78.4667 107.975 77.272C107.975 76.408 108.087 75.6187 108.311 74.904C108.535 74.1893 108.865 73.5707 109.303 73.048C109.74 72.5253 110.279 72.1253 110.919 71.848C111.559 71.56 112.295 71.416 113.127 71.416C113.671 71.416 114.199 71.4747 114.711 71.592C115.223 71.7093 115.687 71.8747 116.102 72.088L115.543 73.304C115.212 73.144 114.839 73 114.423 72.872C114.017 72.744 113.58 72.68 113.111 72.68ZM124.035 83H118.019V71.576H124.035V72.84H119.443V76.408H123.763V77.656H119.443V81.736H124.035V83ZM132.506 79.944C132.506 80.6267 132.346 81.208 132.026 81.688C131.716 82.1573 131.274 82.52 130.698 82.776C130.132 83.032 129.455 83.16 128.666 83.16C128.271 83.16 127.887 83.1387 127.514 83.096C127.151 83.0533 126.815 82.9947 126.506 82.92C126.207 82.8347 125.94 82.7333 125.706 82.616V81.24C126.079 81.4107 126.532 81.5653 127.066 81.704C127.61 81.8427 128.164 81.912 128.73 81.912C129.252 81.912 129.684 81.8373 130.026 81.688C130.378 81.5387 130.639 81.3253 130.81 81.048C130.991 80.7707 131.082 80.4453 131.082 80.072C131.082 79.6987 131.002 79.384 130.842 79.128C130.692 78.872 130.436 78.6373 130.074 78.424C129.711 78.2 129.215 77.9653 128.586 77.72C128.138 77.5387 127.743 77.3467 127.402 77.144C127.06 76.9307 126.772 76.6907 126.538 76.424C126.303 76.1573 126.127 75.8533 126.01 75.512C125.892 75.1707 125.834 74.776 125.834 74.328C125.834 73.72 125.978 73.2027 126.266 72.776C126.564 72.3387 126.97 72.0027 127.482 71.768C128.004 71.5333 128.607 71.416 129.29 71.416C129.876 71.416 130.415 71.4747 130.906 71.592C131.396 71.7093 131.85 71.864 132.266 72.056L131.818 73.288C131.434 73.1173 131.023 72.9733 130.586 72.856C130.159 72.7387 129.716 72.68 129.258 72.68C128.82 72.68 128.452 72.7493 128.154 72.888C127.866 73.0267 127.647 73.224 127.498 73.48C127.348 73.7253 127.274 74.0133 127.274 74.344C127.274 74.728 127.348 75.048 127.498 75.304C127.647 75.56 127.892 75.7893 128.234 75.992C128.575 76.1947 129.028 76.4133 129.594 76.648C130.223 76.8933 130.751 77.16 131.178 77.448C131.615 77.7253 131.946 78.0613 132.17 78.456C132.394 78.8507 132.506 79.3467 132.506 79.944Z" fill="black" style="fill:black;fill-opacity:1;"/>
</svg>
