<svg width="317" height="88" viewBox="0 0 317 88" fill="none" xmlns="http://www.w3.org/2000/svg">
<rect width="317" height="88" fill="white" style="fill:white;fill-opacity:1;"/>
<path d="M39.5852 21.9091V51H35.196V21.9091H39.5852ZM70.1392 31.3693H65.7074C65.5369 30.4223 65.2197 29.589 64.7557 28.8693C64.2917 28.1496 63.7235 27.5388 63.0511 27.0369C62.3788 26.535 61.6259 26.1562 60.7926 25.9006C59.9688 25.6449 59.0928 25.517 58.1648 25.517C56.4886 25.517 54.9877 25.9384 53.6619 26.7812C52.3456 27.6241 51.304 28.8598 50.5369 30.4886C49.7794 32.1174 49.4006 34.1061 49.4006 36.4545C49.4006 38.822 49.7794 40.8201 50.5369 42.4489C51.304 44.0777 52.3504 45.3087 53.6761 46.142C55.0019 46.9754 56.4934 47.392 58.1506 47.392C59.0691 47.392 59.9403 47.2689 60.7642 47.0227C61.5975 46.767 62.3504 46.393 63.0227 45.9006C63.6951 45.4081 64.2633 44.8068 64.7273 44.0966C65.2008 43.3769 65.5275 42.553 65.7074 41.625L70.1392 41.6392C69.9025 43.0691 69.4432 44.3854 68.7614 45.5881C68.089 46.7812 67.2225 47.8134 66.1619 48.6847C65.1108 49.5464 63.9081 50.214 62.554 50.6875C61.1998 51.161 59.7225 51.3977 58.1222 51.3977C55.6032 51.3977 53.3589 50.8011 51.3892 49.608C49.4195 48.4053 47.8665 46.6866 46.7301 44.4517C45.6032 42.2169 45.0398 39.5511 45.0398 36.4545C45.0398 33.3485 45.608 30.6828 46.7443 28.4574C47.8807 26.2225 49.4337 24.5085 51.4034 23.3153C53.3731 22.1127 55.6127 21.5114 58.1222 21.5114C59.6657 21.5114 61.1051 21.7339 62.4403 22.179C63.785 22.6146 64.9924 23.2585 66.0625 24.1108C67.1326 24.9536 68.018 25.9858 68.7188 27.2074C69.4195 28.4195 69.893 29.8068 70.1392 31.3693ZM100.661 36.4545C100.661 39.5606 100.093 42.2311 98.9567 44.4659C97.8203 46.6913 96.2625 48.4053 94.2834 49.608C92.3137 50.8011 90.0741 51.3977 87.5646 51.3977C85.0457 51.3977 82.7966 50.8011 80.8175 49.608C78.8478 48.4053 77.2947 46.6866 76.1584 44.4517C75.022 42.2169 74.4538 39.5511 74.4538 36.4545C74.4538 33.3485 75.022 30.6828 76.1584 28.4574C77.2947 26.2225 78.8478 24.5085 80.8175 23.3153C82.7966 22.1127 85.0457 21.5114 87.5646 21.5114C90.0741 21.5114 92.3137 22.1127 94.2834 23.3153C96.2625 24.5085 97.8203 26.2225 98.9567 28.4574C100.093 30.6828 100.661 33.3485 100.661 36.4545ZM96.3146 36.4545C96.3146 34.0871 95.9311 32.0937 95.1641 30.4744C94.4065 28.8456 93.3648 27.6146 92.0391 26.7812C90.7228 25.9384 89.2313 25.517 87.5646 25.517C85.8885 25.517 84.3923 25.9384 83.076 26.7812C81.7597 27.6146 80.718 28.8456 79.951 30.4744C79.1934 32.0937 78.8146 34.0871 78.8146 36.4545C78.8146 38.822 79.1934 40.8201 79.951 42.4489C80.718 44.0682 81.7597 45.2992 83.076 46.142C84.3923 46.9754 85.8885 47.392 87.5646 47.392C89.2313 47.392 90.7228 46.9754 92.0391 46.142C93.3648 45.2992 94.4065 44.0682 95.1641 42.4489C95.9311 40.8201 96.3146 38.822 96.3146 36.4545ZM129.614 21.9091V51H125.58L110.793 29.6648H110.523V51H106.134V21.9091H110.196L124.997 43.2727H125.267V21.9091H129.614ZM151.406 23.72C151.46 23.6933 154.14 23.68 159.446 23.68C164.753 23.7067 167.58 23.7467 167.926 23.8C168.806 23.9333 169.66 24.2 170.486 24.6C171.473 25.1067 172.233 25.76 172.766 26.56C173.86 28.16 173.953 29.88 173.046 31.72C172.886 32.04 172.7 32.3467 172.486 32.64C172.086 33.2533 171.473 33.88 170.646 34.52C169.34 35.48 167.793 36.1867 166.006 36.64C165.926 36.6667 165.886 36.6933 165.886 36.72C166.073 36.72 166.553 36.84 167.326 37.08C169.113 37.64 170.34 38.6133 171.006 40C171.753 41.52 171.686 43.1867 170.806 45C169.74 47.16 167.926 48.8133 165.366 49.96C165.206 50.04 165.06 50.1067 164.926 50.16C164.046 50.5067 163.14 50.7467 162.206 50.88C161.86 50.9333 158.886 50.9733 153.286 51C147.66 51 144.793 50.96 144.686 50.88L144.606 50.72C144.58 50.64 144.62 50.3333 144.726 49.8C144.886 49.2667 144.993 48.96 145.046 48.88L145.206 48.76H146.566C148.06 48.7333 148.9 48.6267 149.086 48.44C149.166 48.3867 150.126 44.68 151.966 37.32C153.806 29.96 154.726 26.2533 154.726 26.2C154.726 26.1733 154.7 26.1333 154.646 26.08C154.54 26.0267 153.82 25.9733 152.486 25.92H151.126L151.006 25.8C150.846 25.6933 150.846 25.32 151.006 24.68C151.14 24.12 151.273 23.8 151.406 23.72ZM166.366 25.96C166.206 25.9333 165.046 25.92 162.886 25.92L159.406 25.96C159.14 25.9867 158.966 26.0667 158.886 26.2C158.886 26.2533 158.473 27.8667 157.646 31.04L156.446 35.84H159.726L163.046 35.8L163.446 35.72C165.073 35.32 166.393 34.4933 167.406 33.24C167.94 32.6533 168.366 31.9333 168.686 31.08C168.846 30.4933 168.926 29.9067 168.926 29.32C168.926 28.8667 168.9 28.5333 168.846 28.32C168.686 27.7333 168.406 27.24 168.006 26.84C167.58 26.4133 167.033 26.12 166.366 25.96ZM164.206 37.84L163.886 37.76L159.926 37.72H156.006L154.646 43.12C153.74 46.6933 153.286 48.52 153.286 48.6C153.286 48.6533 153.34 48.6933 153.446 48.72H157.166C159.566 48.72 160.9 48.6933 161.166 48.64C163.06 48.2133 164.553 47.1867 165.646 45.56C166.34 44.52 166.726 43.36 166.806 42.08C166.833 40.72 166.486 39.6133 165.766 38.76C165.286 38.28 164.766 37.9733 164.206 37.84ZM181.558 23.88L181.678 23.8H192.878H204.038L204.198 23.92C204.278 24.0267 204.318 24.1333 204.318 24.24L203.158 33.36C203.158 33.4933 203.104 33.6 202.998 33.68L202.878 33.8H202.198C201.718 33.8 201.438 33.7733 201.358 33.72C201.224 33.64 201.184 33.32 201.238 32.76C201.238 32.7067 201.238 32.64 201.238 32.56C201.371 31.4667 201.438 30.56 201.438 29.84C201.358 28.24 200.824 27.1867 199.838 26.68C199.358 26.4667 198.864 26.32 198.358 26.24C197.611 26.1067 195.958 26.0533 193.398 26.08C190.838 26.08 189.491 26.16 189.358 26.32L186.958 35.76H189.078C190.838 35.7333 191.971 35.6267 192.478 35.44C193.064 35.2533 193.544 34.92 193.918 34.44C194.291 33.96 194.638 33.0933 194.958 31.84C195.064 31.4933 195.158 31.28 195.238 31.2L195.358 31.08H196.038C196.598 31.08 196.931 31.1733 197.038 31.36C197.064 31.4667 196.638 33.32 195.758 36.92C194.824 40.5733 194.344 42.4133 194.318 42.44C194.264 42.6 193.944 42.68 193.358 42.68H192.678L192.518 42.56C192.411 42.4267 192.411 42.12 192.518 41.64C192.838 40.28 192.878 39.3467 192.638 38.84C192.451 38.44 191.918 38.1867 191.038 38.08C190.878 38.0533 190.051 38.04 188.558 38.04L186.398 38L185.078 43.24C184.198 46.7867 183.758 48.5733 183.758 48.6C183.758 48.6267 183.784 48.6667 183.838 48.72H191.078C192.651 48.64 193.998 48.3467 195.118 47.84C195.784 47.4933 196.384 47.08 196.918 46.6C197.958 45.56 199.064 43.6267 200.238 40.8C200.451 40.24 200.611 39.9067 200.718 39.8L200.838 39.68H201.558H202.278L202.398 39.8C202.504 39.9067 202.504 40.12 202.398 40.44C202.264 40.84 201.598 42.52 200.398 45.48C198.931 49 198.198 50.7733 198.198 50.8C198.144 50.9067 197.758 50.96 197.038 50.96C196.184 50.9867 192.678 51 186.518 51C178.864 51 174.984 50.92 174.878 50.76C174.824 50.68 174.851 50.3733 174.958 49.84C175.091 49.2533 175.224 48.92 175.358 48.84C175.491 48.7867 175.971 48.76 176.798 48.76C178.291 48.7333 179.131 48.6267 179.318 48.44C179.398 48.3867 180.358 44.68 182.198 37.32C184.038 29.96 184.931 26.2667 184.878 26.24C184.824 26.1867 184.731 26.16 184.598 26.16C184.144 26.08 183.371 26.04 182.278 26.04C181.584 26.04 181.198 25.96 181.118 25.8C181.064 25.72 181.091 25.4133 181.198 24.88C181.331 24.32 181.451 23.9867 181.558 23.88ZM224.449 22.4L225.369 22.36H225.409C226.129 22.36 226.516 22.44 226.569 22.6C226.596 22.7067 226.956 27.0267 227.649 35.56C228.316 44.1467 228.676 48.4667 228.729 48.52C228.756 48.5467 228.849 48.5867 229.009 48.64C229.329 48.72 230.102 48.76 231.329 48.76H232.129L232.289 48.88C232.369 49.0133 232.409 49.1067 232.409 49.16L232.049 50.76C231.969 50.92 231.676 50.9867 231.169 50.96C231.062 50.96 230.862 50.96 230.569 50.96C226.702 50.8533 223.542 50.8667 221.089 51H220.609L220.489 50.88C220.382 50.7733 220.329 50.6667 220.329 50.56C220.329 50.1333 220.462 49.6133 220.729 49C220.782 48.84 221.169 48.76 221.889 48.76C222.529 48.7067 222.956 48.68 223.169 48.68C223.782 48.5733 224.116 48.4667 224.169 48.36C224.196 48.3333 224.142 47.4533 224.009 45.72C223.876 44.1733 223.809 43.2933 223.809 43.08C223.809 43.0267 222.289 43 219.249 43H214.649L213.449 45.12C212.596 46.56 212.156 47.3467 212.129 47.48C212.022 47.7467 212.062 47.9733 212.249 48.16C212.516 48.48 213.089 48.68 213.969 48.76C214.342 48.76 214.582 48.8533 214.689 49.04L214.729 49.16L214.529 49.96C214.422 50.4667 214.316 50.7733 214.209 50.88L214.089 51H213.609C211.396 50.8933 209.302 50.8667 207.329 50.92C205.969 50.9733 205.276 51 205.249 51H204.969L204.849 50.88C204.742 50.7733 204.689 50.68 204.689 50.6L205.049 49C205.156 48.84 205.462 48.76 205.969 48.76C207.836 48.68 209.129 48.1467 209.849 47.16L217.089 34.76C221.729 26.7333 224.102 22.6667 224.209 22.56C224.236 22.5333 224.316 22.48 224.449 22.4ZM223.169 35C222.876 31.1867 222.729 29.2533 222.729 29.2C222.729 29.0933 222.142 30.0667 220.969 32.12L217.609 37.92L215.969 40.72L219.769 40.76H223.609C223.609 40.7867 223.462 38.8667 223.169 35ZM252.329 22.84H254.089C256.276 23.0533 257.996 24 259.249 25.68C259.382 25.84 259.462 25.9333 259.489 25.96C259.462 25.96 259.902 25.5333 260.809 24.68C261.956 23.5867 262.502 23.0667 262.449 23.12L262.769 22.8H263.089C263.436 22.8 263.636 22.88 263.689 23.04C263.716 23.0933 263.276 24.9867 262.369 28.72C261.409 32.56 260.929 34.44 260.929 34.36C260.876 34.52 260.502 34.6 259.809 34.6H258.969L258.849 34.48C258.742 34.3733 258.716 34.1333 258.769 33.76C258.769 33.7333 258.782 33.6 258.809 33.36C259.076 31.44 258.916 29.7333 258.329 28.24C257.689 26.48 256.542 25.44 254.889 25.12C254.409 25.0133 253.676 25 252.689 25.08C252.609 25.1067 252.542 25.12 252.489 25.12C250.116 25.4667 247.942 26.4 245.969 27.92C243.302 30.1067 241.462 33.5333 240.449 38.2C240.102 39.6133 239.929 40.9733 239.929 42.28C239.929 43.5067 240.089 44.5333 240.409 45.36C240.516 45.7067 240.729 46.12 241.049 46.6C242.222 48.36 244.102 49.36 246.689 49.6C248.209 49.76 249.676 49.48 251.089 48.76C253.356 47.6667 255.116 45.8667 256.369 43.36C256.689 42.6933 256.956 42.0133 257.169 41.32C257.302 40.8933 257.436 40.6667 257.569 40.64C257.649 40.6133 257.876 40.6 258.249 40.6C258.862 40.6 259.196 40.68 259.249 40.84C259.276 40.9467 259.249 41.1333 259.169 41.4C258.716 42.9733 258.009 44.4267 257.049 45.76C256.302 46.8267 255.476 47.7333 254.569 48.48C252.302 50.48 249.782 51.6 247.009 51.84C246.209 51.9467 245.382 51.92 244.529 51.76C241.916 51.44 239.809 50.4133 238.209 48.68C236.662 47.0533 235.729 45.0267 235.409 42.6C235.249 41.5067 235.262 40.2667 235.449 38.88C235.929 35.44 237.422 32.2667 239.929 29.36C240.862 28.3467 241.636 27.6 242.249 27.12C244.916 24.9067 247.782 23.5333 250.849 23C250.982 22.9733 251.476 22.92 252.329 22.84ZM269.763 23.72C269.816 23.6933 270.056 23.68 270.483 23.68C273.709 23.8133 277.069 23.8267 280.563 23.72C281.416 23.6933 281.896 23.7733 282.003 23.96C282.056 24.04 282.016 24.3467 281.883 24.88C281.749 25.3867 281.656 25.6933 281.603 25.8L281.483 25.92H280.083C278.749 25.9467 277.976 26.0133 277.763 26.12C277.603 26.1733 277.496 26.3067 277.443 26.52C277.309 26.84 276.909 28.3467 276.243 31.04L275.083 35.68H280.683L286.283 35.64L287.483 30.96C288.256 27.8667 288.643 26.28 288.643 26.2C288.643 26.1733 288.616 26.1333 288.563 26.08C288.456 26.0267 287.736 25.9733 286.403 25.92H285.043L284.883 25.76C284.803 25.68 284.763 25.6 284.763 25.52L285.203 23.88C285.283 23.7467 285.629 23.6933 286.243 23.72C286.349 23.72 286.563 23.72 286.883 23.72C289.069 23.8267 291.843 23.84 295.203 23.76C295.523 23.7333 295.789 23.72 296.003 23.72C296.936 23.6933 297.456 23.7733 297.563 23.96C297.616 24.04 297.576 24.3467 297.443 24.88C297.309 25.3867 297.216 25.6933 297.163 25.8L297.043 25.92H295.643C294.309 25.9467 293.536 26.0133 293.323 26.12C293.189 26.1733 293.109 26.2533 293.083 26.36C292.923 26.76 291.976 30.4267 290.243 37.36C288.403 44.72 287.469 48.4133 287.443 48.44C287.416 48.5467 287.536 48.6133 287.803 48.64C288.123 48.6933 288.749 48.7333 289.683 48.76C290.669 48.76 291.216 48.8533 291.323 49.04C291.349 49.12 291.309 49.4267 291.203 49.96C291.069 50.4667 290.949 50.7733 290.843 50.88L290.723 51H290.083C287.176 50.8667 283.816 50.8533 280.003 50.96C279.123 50.9867 278.629 50.9067 278.523 50.72C278.496 50.64 278.536 50.3333 278.643 49.8C278.803 49.2667 278.909 48.96 278.963 48.88L279.123 48.76H280.483C281.976 48.7333 282.816 48.6267 283.003 48.44C283.083 48.3867 283.563 46.6267 284.443 43.16L285.723 37.96C285.723 37.9333 283.856 37.92 280.123 37.92H274.523L273.203 43.2C272.323 46.7467 271.896 48.5333 271.923 48.56C271.976 48.6133 272.069 48.64 272.203 48.64C272.523 48.72 273.323 48.76 274.603 48.76C275.269 48.76 275.656 48.8533 275.763 49.04C275.789 49.1467 275.749 49.4533 275.643 49.96C275.509 50.4667 275.389 50.7733 275.283 50.88L275.163 51H274.523C271.616 50.8667 268.256 50.8533 264.443 50.96C263.563 50.9867 263.069 50.9067 262.963 50.72C262.936 50.64 262.976 50.3333 263.083 49.8C263.243 49.2667 263.349 48.96 263.403 48.88L263.563 48.76H264.923C266.416 48.7333 267.256 48.6267 267.443 48.44C267.523 48.3867 268.483 44.68 270.323 37.32C272.163 29.96 273.083 26.2533 273.083 26.2C273.083 26.1733 273.056 26.1333 273.003 26.08C272.896 26.0267 272.176 25.9733 270.843 25.92H269.483L269.323 25.76C269.243 25.68 269.203 25.6 269.203 25.52L269.643 23.88C269.643 23.8533 269.683 23.8 269.763 23.72Z" fill="black" style="fill:black;fill-opacity:1;"/>
<path d="M95.223 73L93.206 65.7273H94.3601L95.777 71.3594H95.8445L97.3182 65.7273H98.4616L99.9354 71.3629H100.003L101.416 65.7273H102.574L100.553 73H99.4489L97.9183 67.5526H97.8615L96.331 73H95.223ZM103.564 73H102.399L105.016 65.7273H106.284L108.901 73H107.736L105.68 67.0483H105.623L103.564 73ZM103.759 70.152H107.537V71.0753H103.759V70.152ZM108.733 66.6719V65.7273H114.362V66.6719H112.093V73H110.999V66.6719H108.733ZM115.606 73V65.7273H120.165V66.6719H116.703V68.8878H119.927V69.8288H116.703V72.0554H120.208V73H115.606ZM121.631 73V65.7273H124.223C124.787 65.7273 125.254 65.8243 125.626 66.0185C126 66.2126 126.279 66.4813 126.464 66.8246C126.649 67.1655 126.741 67.5597 126.741 68.0071C126.741 68.4522 126.648 68.844 126.461 69.1825C126.276 69.5187 125.997 69.7803 125.623 69.9673C125.251 70.1544 124.783 70.2479 124.22 70.2479H122.256V69.3033H124.12C124.475 69.3033 124.764 69.2524 124.987 69.1506C125.212 69.0488 125.376 68.9008 125.48 68.7067C125.585 68.5125 125.637 68.2794 125.637 68.0071C125.637 67.7325 125.583 67.4946 125.477 67.2933C125.373 67.0921 125.208 66.9382 124.983 66.8317C124.761 66.7228 124.468 66.6683 124.106 66.6683H122.728V73H121.631ZM125.221 69.7188L127.018 73H125.768L124.007 69.7188H125.221ZM128.076 73V65.7273H132.586V66.6719H129.174V68.8878H132.263V69.8288H129.174V73H128.076ZM133.936 73V65.7273H136.528C137.092 65.7273 137.559 65.8243 137.931 66.0185C138.305 66.2126 138.584 66.4813 138.769 66.8246C138.953 67.1655 139.046 67.5597 139.046 68.0071C139.046 68.4522 138.952 68.844 138.765 69.1825C138.581 69.5187 138.301 69.7803 137.927 69.9673C137.556 70.1544 137.088 70.2479 136.525 70.2479H134.561V69.3033H136.425C136.78 69.3033 137.069 69.2524 137.292 69.1506C137.516 69.0488 137.681 68.9008 137.785 68.7067C137.889 68.5125 137.941 68.2794 137.941 68.0071C137.941 67.7325 137.888 67.4946 137.782 67.2933C137.677 67.0921 137.513 66.9382 137.288 66.8317C137.065 66.7228 136.773 66.6683 136.411 66.6683H135.033V73H133.936ZM137.526 69.7188L139.323 73H138.073L136.311 69.7188H137.526ZM146.699 69.3636C146.699 70.1402 146.556 70.8078 146.272 71.3665C145.988 71.9228 145.599 72.3513 145.104 72.652C144.612 72.9503 144.052 73.0994 143.424 73.0994C142.795 73.0994 142.232 72.9503 141.738 72.652C141.245 72.3513 140.857 71.9216 140.573 71.3629C140.289 70.8042 140.147 70.1378 140.147 69.3636C140.147 68.5871 140.289 67.9207 140.573 67.3643C140.857 66.8056 141.245 66.3771 141.738 66.0788C142.232 65.7782 142.795 65.6278 143.424 65.6278C144.052 65.6278 144.612 65.7782 145.104 66.0788C145.599 66.3771 145.988 66.8056 146.272 67.3643C146.556 67.9207 146.699 68.5871 146.699 69.3636ZM145.612 69.3636C145.612 68.7718 145.516 68.2734 145.324 67.8686C145.135 67.4614 144.874 67.1536 144.543 66.9453C144.214 66.7346 143.841 66.6293 143.424 66.6293C143.005 66.6293 142.631 66.7346 142.302 66.9453C141.973 67.1536 141.713 67.4614 141.521 67.8686C141.332 68.2734 141.237 68.7718 141.237 69.3636C141.237 69.9555 141.332 70.455 141.521 70.8622C141.713 71.267 141.973 71.5748 142.302 71.7855C142.631 71.9938 143.005 72.098 143.424 72.098C143.841 72.098 144.214 71.9938 144.543 71.7855C144.874 71.5748 145.135 71.267 145.324 70.8622C145.516 70.455 145.612 69.9555 145.612 69.3636ZM153.937 65.7273V73H152.928L149.231 67.6662H149.164V73H148.067V65.7273H149.082L152.782 71.0682H152.85V65.7273H153.937ZM155.179 66.6719V65.7273H160.807V66.6719H158.538V73H157.444V66.6719H155.179ZM164.697 73V65.7273H167.29C167.853 65.7273 168.321 65.8243 168.692 66.0185C169.067 66.2126 169.346 66.4813 169.531 66.8246C169.715 67.1655 169.808 67.5597 169.808 68.0071C169.808 68.4522 169.714 68.844 169.527 69.1825C169.342 69.5187 169.063 69.7803 168.689 69.9673C168.317 70.1544 167.85 70.2479 167.286 70.2479H165.322V69.3033H167.187C167.542 69.3033 167.831 69.2524 168.053 69.1506C168.278 69.0488 168.443 68.9008 168.547 68.7067C168.651 68.5125 168.703 68.2794 168.703 68.0071C168.703 67.7325 168.65 67.4946 168.543 67.2933C168.439 67.0921 168.275 66.9382 168.05 66.8317C167.827 66.7228 167.535 66.6683 167.173 66.6683H165.795V73H164.697ZM168.288 69.7188L170.085 73H168.835L167.073 69.7188H168.288ZM171.143 73V65.7273H175.702V66.6719H172.24V68.8878H175.464V69.8288H172.24V72.0554H175.745V73H171.143ZM181.135 67.6378C181.097 67.3016 180.941 67.0412 180.666 66.8565C180.391 66.6695 180.046 66.576 179.629 66.576C179.331 66.576 179.073 66.6233 178.855 66.718C178.637 66.8104 178.468 66.9382 178.347 67.1016C178.229 67.2625 178.17 67.446 178.17 67.652C178.17 67.8248 178.21 67.974 178.29 68.0994C178.373 68.2249 178.481 68.3303 178.613 68.4155C178.748 68.4983 178.893 68.5682 179.047 68.625C179.201 68.6795 179.349 68.7244 179.491 68.7599L180.201 68.9446C180.433 69.0014 180.671 69.0784 180.915 69.1754C181.158 69.2725 181.385 69.4003 181.593 69.5589C181.801 69.7176 181.969 69.9141 182.097 70.1484C182.227 70.3828 182.292 70.6634 182.292 70.9901C182.292 71.402 182.186 71.7678 181.973 72.0874C181.762 72.407 181.456 72.6591 181.053 72.8438C180.653 73.0284 180.169 73.1207 179.601 73.1207C179.056 73.1207 178.585 73.0343 178.187 72.8615C177.79 72.6887 177.478 72.4437 177.253 72.1264C177.028 71.8068 176.904 71.428 176.881 70.9901H177.981C178.003 71.2528 178.088 71.4718 178.237 71.647C178.389 71.8198 178.581 71.9489 178.816 72.0341C179.053 72.117 179.312 72.1584 179.594 72.1584C179.904 72.1584 180.18 72.1098 180.421 72.0128C180.665 71.9134 180.857 71.776 180.996 71.6009C181.136 71.4233 181.206 71.2161 181.206 70.9794C181.206 70.764 181.144 70.5876 181.021 70.4503C180.9 70.313 180.736 70.1993 180.528 70.1094C180.322 70.0194 180.088 69.9401 179.828 69.8714L178.969 69.6371C178.386 69.4785 177.925 69.2453 177.584 68.9375C177.245 68.6297 177.076 68.2225 177.076 67.7159C177.076 67.2969 177.189 66.9311 177.417 66.6186C177.644 66.3061 177.952 66.0634 178.34 65.8906C178.728 65.7154 179.166 65.6278 179.654 65.6278C180.146 65.6278 180.581 65.7143 180.957 65.8871C181.336 66.0599 181.634 66.2978 181.852 66.6009C182.07 66.9015 182.184 67.2472 182.193 67.6378H181.135ZM184.701 65.7273V73H183.604V65.7273H184.701ZM188.653 73H186.299V65.7273H188.728C189.441 65.7273 190.053 65.8729 190.564 66.1641C191.075 66.4529 191.467 66.8684 191.739 67.4105C192.014 67.9503 192.151 68.5978 192.151 69.353C192.151 70.1106 192.013 70.7616 191.736 71.3061C191.461 71.8506 191.063 72.2696 190.543 72.5632C190.022 72.8544 189.392 73 188.653 73ZM187.396 72.0412H188.593C189.147 72.0412 189.607 71.937 189.974 71.7287C190.341 71.518 190.616 71.2138 190.798 70.8161C190.981 70.416 191.072 69.9283 191.072 69.353C191.072 68.7824 190.981 68.2983 190.798 67.9006C190.618 67.5028 190.35 67.201 189.992 66.995C189.635 66.7891 189.191 66.6861 188.661 66.6861H187.396V72.0412ZM193.516 73V65.7273H198.075V66.6719H194.613V68.8878H197.838V69.8288H194.613V72.0554H198.118V73H193.516ZM205.411 65.7273V73H204.403L200.706 67.6662H200.638V73H199.541V65.7273H200.557L204.257 71.0682H204.325V65.7273H205.411ZM213.052 68.0923H211.944C211.902 67.8556 211.823 67.6473 211.706 67.4673C211.59 67.2874 211.448 67.1347 211.28 67.0092C211.112 66.8838 210.924 66.7891 210.716 66.7251C210.51 66.6612 210.291 66.6293 210.059 66.6293C209.64 66.6293 209.265 66.7346 208.933 66.9453C208.604 67.156 208.344 67.465 208.152 67.8722C207.962 68.2794 207.868 68.7765 207.868 69.3636C207.868 69.9555 207.962 70.455 208.152 70.8622C208.344 71.2694 208.605 71.5772 208.937 71.7855C209.268 71.9938 209.641 72.098 210.055 72.098C210.285 72.098 210.503 72.0672 210.709 72.0057C210.917 71.9418 211.105 71.8482 211.273 71.7251C211.441 71.602 211.583 71.4517 211.699 71.2741C211.818 71.0942 211.899 70.8883 211.944 70.6562L213.052 70.6598C212.993 71.0173 212.878 71.3464 212.708 71.647C212.54 71.9453 212.323 72.2034 212.058 72.4212C211.795 72.6366 211.495 72.8035 211.156 72.9219C210.818 73.0402 210.448 73.0994 210.048 73.0994C209.418 73.0994 208.857 72.9503 208.365 72.652C207.872 72.3513 207.484 71.9216 207.2 71.3629C206.918 70.8042 206.778 70.1378 206.778 69.3636C206.778 68.5871 206.92 67.9207 207.204 67.3643C207.488 66.8056 207.876 66.3771 208.368 66.0788C208.861 65.7782 209.421 65.6278 210.048 65.6278C210.434 65.6278 210.794 65.6835 211.128 65.7947C211.464 65.9036 211.766 66.0646 212.033 66.2777C212.301 66.4884 212.522 66.7464 212.697 67.0518C212.872 67.3549 212.991 67.7017 213.052 68.0923ZM214.365 73V65.7273H218.925V66.6719H215.463V68.8878H218.687V69.8288H215.463V72.0554H218.968V73H214.365ZM224.357 67.6378C224.32 67.3016 224.163 67.0412 223.889 66.8565C223.614 66.6695 223.268 66.576 222.852 66.576C222.553 66.576 222.295 66.6233 222.078 66.718C221.86 66.8104 221.691 66.9382 221.57 67.1016C221.451 67.2625 221.392 67.446 221.392 67.652C221.392 67.8248 221.432 67.974 221.513 68.0994C221.596 68.2249 221.704 68.3303 221.836 68.4155C221.971 68.4983 222.115 68.5682 222.269 68.625C222.423 68.6795 222.571 68.7244 222.713 68.7599L223.423 68.9446C223.655 69.0014 223.893 69.0784 224.137 69.1754C224.381 69.2725 224.607 69.4003 224.816 69.5589C225.024 69.7176 225.192 69.9141 225.32 70.1484C225.45 70.3828 225.515 70.6634 225.515 70.9901C225.515 71.402 225.409 71.7678 225.195 72.0874C224.985 72.407 224.678 72.6591 224.276 72.8438C223.876 73.0284 223.392 73.1207 222.823 73.1207C222.279 73.1207 221.808 73.0343 221.41 72.8615C221.012 72.6887 220.701 72.4437 220.476 72.1264C220.251 71.8068 220.127 71.428 220.103 70.9901H221.204C221.225 71.2528 221.311 71.4718 221.46 71.647C221.611 71.8198 221.804 71.9489 222.039 72.0341C222.275 72.117 222.535 72.1584 222.816 72.1584C223.126 72.1584 223.402 72.1098 223.644 72.0128C223.887 71.9134 224.079 71.776 224.219 71.6009C224.359 71.4233 224.428 71.2161 224.428 70.9794C224.428 70.764 224.367 70.5876 224.244 70.4503C224.123 70.313 223.959 70.1993 223.75 70.1094C223.544 70.0194 223.311 69.9401 223.051 69.8714L222.191 69.6371C221.609 69.4785 221.147 69.2453 220.806 68.9375C220.468 68.6297 220.298 68.2225 220.298 67.7159C220.298 67.2969 220.412 66.9311 220.639 66.6186C220.867 66.3061 221.174 66.0634 221.563 65.8906C221.951 65.7154 222.389 65.6278 222.877 65.6278C223.369 65.6278 223.803 65.7143 224.18 65.8871C224.559 66.0599 224.857 66.2978 225.075 66.6009C225.293 66.9015 225.406 67.2472 225.416 67.6378H224.357Z" fill="black" style="fill:black;fill-opacity:1;"/>
</svg>
