<svg width="275" height="120" viewBox="0 0 275 120" fill="none" xmlns="http://www.w3.org/2000/svg">
<rect width="275" height="120" fill="white" style="fill:white;fill-opacity:1;"/>
<path d="M47.3402 34.9091V56H44.4155L33.695 40.532H33.4993V56H30.3171V34.9091H33.2624L43.9933 50.3977H44.1889V34.9091H47.3402ZM53.7638 56H50.3859L57.9758 34.9091H61.6523L69.2421 56H65.8643L59.9015 38.7401H59.7368L53.7638 56ZM54.3302 47.7408H65.2876V50.4183H54.3302V47.7408ZM68.7555 37.6484V34.9091H85.0783V37.6484H78.4977V56H75.3258V37.6484H68.7555ZM91.8675 34.9091V56H88.6853V34.9091H91.8675ZM99.6839 34.9091V56H96.5017V34.9091H99.6839ZM106.161 34.9091L112.032 52.0866H112.268L118.138 34.9091H121.578L113.988 56H110.312L102.722 34.9091H106.161ZM141.897 45.4545C141.897 47.7064 141.485 49.6425 140.661 51.2628C139.837 52.8762 138.708 54.1188 137.273 54.9908C135.845 55.8558 134.221 56.2884 132.402 56.2884C130.575 56.2884 128.945 55.8558 127.51 54.9908C126.082 54.1188 124.956 52.8728 124.132 51.2525C123.308 49.6322 122.896 47.6996 122.896 45.4545C122.896 43.2027 123.308 41.27 124.132 39.6566C124.956 38.0363 126.082 36.7937 127.51 35.9286C128.945 35.0567 130.575 34.6207 132.402 34.6207C134.221 34.6207 135.845 35.0567 137.273 35.9286C138.708 36.7937 139.837 38.0363 140.661 39.6566C141.485 41.27 141.897 43.2027 141.897 45.4545ZM138.745 45.4545C138.745 43.7382 138.467 42.293 137.911 41.119C137.362 39.9381 136.607 39.0456 135.646 38.4414C134.691 37.8304 133.61 37.5249 132.402 37.5249C131.186 37.5249 130.102 37.8304 129.147 38.4414C128.193 39.0456 127.438 39.9381 126.882 41.119C126.332 42.293 126.058 43.7382 126.058 45.4545C126.058 47.1709 126.332 48.6196 126.882 49.8004C127.438 50.9744 128.193 51.867 129.147 52.478C130.102 53.0821 131.186 53.3842 132.402 53.3842C133.61 53.3842 134.691 53.0821 135.646 52.478C136.607 51.867 137.362 50.9744 137.911 49.8004C138.467 48.6196 138.745 47.1709 138.745 45.4545ZM152.488 33.9205L145.691 59.1719H142.942L149.739 33.9205H152.488ZM155.351 56V34.9091H168.43V37.6484H158.533V44.0746H167.493V46.8036H158.533V56H155.351ZM190.664 45.4545C190.664 47.7064 190.252 49.6425 189.428 51.2628C188.604 52.8762 187.475 54.1188 186.04 54.9908C184.612 55.8558 182.988 56.2884 181.169 56.2884C179.343 56.2884 177.712 55.8558 176.277 54.9908C174.849 54.1188 173.723 52.8728 172.9 51.2525C172.076 49.6322 171.664 47.6996 171.664 45.4545C171.664 43.2027 172.076 41.27 172.9 39.6566C173.723 38.0363 174.849 36.7937 176.277 35.9286C177.712 35.0567 179.343 34.6207 181.169 34.6207C182.988 34.6207 184.612 35.0567 186.04 35.9286C187.475 36.7937 188.604 38.0363 189.428 39.6566C190.252 41.27 190.664 43.2027 190.664 45.4545ZM187.513 45.4545C187.513 43.7382 187.235 42.293 186.679 41.119C186.129 39.9381 185.374 39.0456 184.413 38.4414C183.459 37.8304 182.377 37.5249 181.169 37.5249C179.954 37.5249 178.869 37.8304 177.915 38.4414C176.961 39.0456 176.205 39.9381 175.649 41.119C175.1 42.293 174.825 43.7382 174.825 45.4545C174.825 47.1709 175.1 48.6196 175.649 49.8004C176.205 50.9744 176.961 51.867 177.915 52.478C178.869 53.0821 179.954 53.3842 181.169 53.3842C182.377 53.3842 183.459 53.0821 184.413 52.478C185.374 51.867 186.129 50.9744 186.679 49.8004C187.235 48.6196 187.513 47.1709 187.513 45.4545ZM208.194 34.9091H211.387V48.7809C211.387 50.257 211.04 51.5649 210.347 52.7045C209.653 53.8374 208.678 54.7299 207.422 55.3821C206.166 56.0275 204.693 56.3501 203.004 56.3501C201.322 56.3501 199.853 56.0275 198.596 55.3821C197.34 54.7299 196.365 53.8374 195.672 52.7045C194.978 51.5649 194.632 50.257 194.632 48.7809V34.9091H197.814V48.5234C197.814 49.4777 198.023 50.3256 198.442 51.0671C198.868 51.8086 199.468 52.3922 200.244 52.8178C201.02 53.2366 201.94 53.446 203.004 53.446C204.075 53.446 204.999 53.2366 205.774 52.8178C206.557 52.3922 207.154 51.8086 207.566 51.0671C207.985 50.3256 208.194 49.4777 208.194 48.5234V34.9091ZM216.013 56V34.9091H223.531C225.165 34.9091 226.521 35.1906 227.599 35.7536C228.684 36.3165 229.494 37.0958 230.029 38.0913C230.565 39.0799 230.833 40.223 230.833 41.5206C230.833 42.8113 230.561 43.9476 230.019 44.9293C229.484 45.9042 228.673 46.6629 227.589 47.2053C226.511 47.7476 225.155 48.0188 223.521 48.0188H217.826V45.2795H223.233C224.262 45.2795 225.1 45.1319 225.745 44.8366C226.398 44.5414 226.875 44.1123 227.177 43.5494C227.479 42.9864 227.63 42.3101 227.63 41.5206C227.63 40.7242 227.475 40.0342 227.166 39.4506C226.864 38.8671 226.387 38.4208 225.735 38.1119C225.09 37.796 224.242 37.6381 223.191 37.6381H219.196V56H216.013ZM226.425 46.4844L231.636 56H228.011L222.903 46.4844H226.425ZM30.3171 91V69.9091H33.4993V88.2607H43.0561V91H30.3171ZM49.544 91H46.1662L53.756 69.9091H57.4325L65.0224 91H61.6445L55.6818 73.7401H55.517L49.544 91ZM50.1104 82.7408H61.0678V85.4183H50.1104V82.7408ZM81.6309 69.9091H84.8234V83.7809C84.8234 85.257 84.4767 86.5649 83.7833 87.7045C83.0899 88.8374 82.115 89.7299 80.8586 90.3821C79.6022 91.0275 78.1295 91.3501 76.4406 91.3501C74.7586 91.3501 73.2893 91.0275 72.0329 90.3821C70.7765 89.7299 69.8016 88.8374 69.1082 87.7045C68.4148 86.5649 68.0681 85.257 68.0681 83.7809V69.9091H71.2503V83.5234C71.2503 84.4777 71.4597 85.3256 71.8785 86.0671C72.3041 86.8086 72.9049 87.3922 73.6807 87.8178C74.4565 88.2366 75.3765 88.446 76.4406 88.446C77.5116 88.446 78.435 88.2366 79.2108 87.8178C79.9935 87.3922 80.5908 86.8086 81.0028 86.0671C81.4216 85.3256 81.6309 84.4777 81.6309 83.5234V69.9091ZM96.2777 91H89.4499V69.9091H96.494C98.5605 69.9091 100.335 70.3313 101.818 71.1758C103.301 72.0134 104.437 73.2183 105.227 74.7905C106.023 76.3558 106.422 78.2335 106.422 80.4237C106.422 82.6206 106.02 84.5086 105.217 86.0877C104.42 87.6668 103.267 88.882 101.756 89.7333C100.246 90.5778 98.4197 91 96.2777 91ZM92.6321 88.2195H96.1026C97.7092 88.2195 99.0445 87.9174 100.109 87.3132C101.173 86.7022 101.969 85.82 102.498 84.6665C103.027 83.5063 103.291 82.092 103.291 80.4237C103.291 78.7691 103.027 77.3651 102.498 76.2116C101.976 75.0582 101.197 74.1829 100.16 73.5856C99.1235 72.9883 97.8362 72.6896 96.2983 72.6896H92.6321V88.2195ZM110.379 91V69.9091H123.602V72.6484H113.561V79.0746H122.912V81.8036H113.561V88.2607H123.725V91H110.379ZM127.852 91V69.9091H135.37C137.004 69.9091 138.36 70.1906 139.438 70.7536C140.523 71.3165 141.333 72.0958 141.868 73.0913C142.404 74.0799 142.672 75.223 142.672 76.5206C142.672 77.8113 142.4 78.9476 141.858 79.9293C141.322 80.9042 140.512 81.6629 139.428 82.2053C138.35 82.7476 136.994 83.0188 135.36 83.0188H129.665V80.2795H135.071C136.101 80.2795 136.939 80.1319 137.584 79.8366C138.236 79.5414 138.714 79.1123 139.016 78.5494C139.318 77.9864 139.469 77.3101 139.469 76.5206C139.469 75.7242 139.314 75.0342 139.005 74.4506C138.703 73.8671 138.226 73.4208 137.574 73.1119C136.929 72.796 136.081 72.6381 135.03 72.6381H131.034V91H127.852ZM138.264 81.4844L143.475 91H139.85L134.742 81.4844H138.264ZM153.371 91H146.544V69.9091H153.588C155.654 69.9091 157.429 70.3313 158.912 71.1758C160.395 72.0134 161.531 73.2183 162.321 74.7905C163.117 76.3558 163.515 78.2335 163.515 80.4237C163.515 82.6206 163.114 84.5086 162.31 86.0877C161.514 87.6668 160.361 88.882 158.85 89.7333C157.34 90.5778 155.513 91 153.371 91ZM149.726 88.2195H153.196C154.803 88.2195 156.138 87.9174 157.202 87.3132C158.267 86.7022 159.063 85.82 159.592 84.6665C160.12 83.5063 160.385 82.092 160.385 80.4237C160.385 78.7691 160.12 77.3651 159.592 76.2116C159.07 75.0582 158.291 74.1829 157.254 73.5856C156.217 72.9883 154.93 72.6896 153.392 72.6896H149.726V88.2195ZM168.206 91H164.828L172.418 69.9091H176.095L183.684 91H180.307L174.344 73.7401H174.179L168.206 91ZM168.773 82.7408H179.73V85.4183H168.773V82.7408ZM186.73 91V69.9091H189.912V88.2607H199.469V91H186.73ZM203.099 91V69.9091H216.322V72.6484H206.282V79.0746H215.632V81.8036H206.282V88.2607H216.446V91H203.099Z" fill="black" style="fill:black;fill-opacity:1;"/>
</svg>
