<svg width="340" height="117" viewBox="0 0 340 117" fill="none" xmlns="http://www.w3.org/2000/svg">
<rect width="340" height="117" fill="white" style="fill:white;fill-opacity:1;"/>
<path d="M52.7727 39.3636C52.7727 41.8485 52.3182 43.9848 51.4091 45.7727C50.5 47.553 49.2538 48.9242 47.6705 49.8864C46.0947 50.8409 44.303 51.3182 42.2955 51.3182C40.2803 51.3182 38.4811 50.8409 36.8977 49.8864C35.322 48.9242 34.0795 47.5492 33.1705 45.7614C32.2614 43.9735 31.8068 41.8409 31.8068 39.3636C31.8068 36.8788 32.2614 34.7462 33.1705 32.9659C34.0795 31.178 35.322 29.8068 36.8977 28.8523C38.4811 27.8902 40.2803 27.4091 42.2955 27.4091C44.303 27.4091 46.0947 27.8902 47.6705 28.8523C49.2538 29.8068 50.5 31.178 51.4091 32.9659C52.3182 34.7462 52.7727 36.8788 52.7727 39.3636ZM49.2955 39.3636C49.2955 37.4697 48.9886 35.875 48.375 34.5795C47.7689 33.2765 46.9356 32.2917 45.875 31.625C44.822 30.9508 43.6288 30.6136 42.2955 30.6136C40.9545 30.6136 39.7576 30.9508 38.7045 31.625C37.6515 32.2917 36.8182 33.2765 36.2045 34.5795C35.5985 35.875 35.2955 37.4697 35.2955 39.3636C35.2955 41.2576 35.5985 42.8561 36.2045 44.1591C36.8182 45.4545 37.6515 46.4394 38.7045 47.1136C39.7576 47.7803 40.9545 48.1136 42.2955 48.1136C43.6288 48.1136 44.822 47.7803 45.875 47.1136C46.9356 46.4394 47.7689 45.4545 48.375 44.1591C48.9886 42.8561 49.2955 41.2576 49.2955 39.3636ZM75.9347 27.7273V51H72.7074L60.8778 33.9318H60.6619V51H57.1506V27.7273H60.4006L72.2415 44.8182H72.4574V27.7273H75.9347ZM81.0568 51V27.7273H95.6477V30.75H84.5682V37.8409H94.8864V40.8523H84.5682V47.9773H95.7841V51H81.0568ZM108.807 51V27.7273H112.318V37.8409H123.92V27.7273H127.443V51H123.92V40.8523H112.318V51H108.807ZM152.773 39.3636C152.773 41.8485 152.318 43.9848 151.409 45.7727C150.5 47.553 149.254 48.9242 147.67 49.8864C146.095 50.8409 144.303 51.3182 142.295 51.3182C140.28 51.3182 138.481 50.8409 136.898 49.8864C135.322 48.9242 134.08 47.5492 133.17 45.7614C132.261 43.9735 131.807 41.8409 131.807 39.3636C131.807 36.8788 132.261 34.7462 133.17 32.9659C134.08 31.178 135.322 29.8068 136.898 28.8523C138.481 27.8902 140.28 27.4091 142.295 27.4091C144.303 27.4091 146.095 27.8902 147.67 28.8523C149.254 29.8068 150.5 31.178 151.409 32.9659C152.318 34.7462 152.773 36.8788 152.773 39.3636ZM149.295 39.3636C149.295 37.4697 148.989 35.875 148.375 34.5795C147.769 33.2765 146.936 32.2917 145.875 31.625C144.822 30.9508 143.629 30.6136 142.295 30.6136C140.955 30.6136 139.758 30.9508 138.705 31.625C137.652 32.2917 136.818 33.2765 136.205 34.5795C135.598 35.875 135.295 37.4697 135.295 39.3636C135.295 41.2576 135.598 42.8561 136.205 44.1591C136.818 45.4545 137.652 46.4394 138.705 47.1136C139.758 47.7803 140.955 48.1136 142.295 48.1136C143.629 48.1136 144.822 47.7803 145.875 47.1136C146.936 46.4394 147.769 45.4545 148.375 44.1591C148.989 42.8561 149.295 41.2576 149.295 39.3636ZM157.151 51V27.7273H160.662V47.9773H171.207V51H157.151ZM175.213 51V27.7273H178.724V47.9773H189.27V51H175.213ZM189.761 27.7273H193.75L199.83 38.3068H200.08L206.159 27.7273H210.148L201.705 41.8636V51H198.205V41.8636L189.761 27.7273ZM218.02 51L211.565 27.7273H215.259L219.793 45.75H220.009L224.724 27.7273H228.384L233.099 45.7614H233.315L237.838 27.7273H241.543L235.077 51H231.543L226.645 33.5682H226.463L221.565 51H218.02ZM263.804 39.3636C263.804 41.8485 263.349 43.9848 262.44 45.7727C261.531 47.553 260.285 48.9242 258.702 49.8864C257.126 50.8409 255.334 51.3182 253.327 51.3182C251.312 51.3182 249.512 50.8409 247.929 49.8864C246.353 48.9242 245.111 47.5492 244.202 45.7614C243.293 43.9735 242.838 41.8409 242.838 39.3636C242.838 36.8788 243.293 34.7462 244.202 32.9659C245.111 31.178 246.353 29.8068 247.929 28.8523C249.512 27.8902 251.312 27.4091 253.327 27.4091C255.334 27.4091 257.126 27.8902 258.702 28.8523C260.285 29.8068 261.531 31.178 262.44 32.9659C263.349 34.7462 263.804 36.8788 263.804 39.3636ZM260.327 39.3636C260.327 37.4697 260.02 35.875 259.406 34.5795C258.8 33.2765 257.967 32.2917 256.906 31.625C255.853 30.9508 254.66 30.6136 253.327 30.6136C251.986 30.6136 250.789 30.9508 249.736 31.625C248.683 32.2917 247.849 33.2765 247.236 34.5795C246.63 35.875 246.327 37.4697 246.327 39.3636C246.327 41.2576 246.63 42.8561 247.236 44.1591C247.849 45.4545 248.683 46.4394 249.736 47.1136C250.789 47.7803 251.986 48.1136 253.327 48.1136C254.66 48.1136 255.853 47.7803 256.906 47.1136C257.967 46.4394 258.8 45.4545 259.406 44.1591C260.02 42.8561 260.327 41.2576 260.327 39.3636ZM288.398 39.3636C288.398 41.8485 287.943 43.9848 287.034 45.7727C286.125 47.553 284.879 48.9242 283.295 49.8864C281.72 50.8409 279.928 51.3182 277.92 51.3182C275.905 51.3182 274.106 50.8409 272.523 49.8864C270.947 48.9242 269.705 47.5492 268.795 45.7614C267.886 43.9735 267.432 41.8409 267.432 39.3636C267.432 36.8788 267.886 34.7462 268.795 32.9659C269.705 31.178 270.947 29.8068 272.523 28.8523C274.106 27.8902 275.905 27.4091 277.92 27.4091C279.928 27.4091 281.72 27.8902 283.295 28.8523C284.879 29.8068 286.125 31.178 287.034 32.9659C287.943 34.7462 288.398 36.8788 288.398 39.3636ZM284.92 39.3636C284.92 37.4697 284.614 35.875 284 34.5795C283.394 33.2765 282.561 32.2917 281.5 31.625C280.447 30.9508 279.254 30.6136 277.92 30.6136C276.58 30.6136 275.383 30.9508 274.33 31.625C273.277 32.2917 272.443 33.2765 271.83 34.5795C271.223 35.875 270.92 37.4697 270.92 39.3636C270.92 41.2576 271.223 42.8561 271.83 44.1591C272.443 45.4545 273.277 46.4394 274.33 47.1136C275.383 47.7803 276.58 48.1136 277.92 48.1136C279.254 48.1136 280.447 47.7803 281.5 47.1136C282.561 46.4394 283.394 45.4545 284 44.1591C284.614 42.8561 284.92 41.2576 284.92 39.3636ZM300.31 51H292.776V27.7273H300.548C302.829 27.7273 304.787 28.1932 306.423 29.125C308.06 30.0492 309.313 31.3788 310.185 33.1136C311.063 34.8409 311.503 36.9129 311.503 39.3295C311.503 41.7538 311.06 43.8371 310.173 45.5795C309.295 47.322 308.022 48.6629 306.355 49.6023C304.688 50.5341 302.673 51 300.31 51ZM296.287 47.9318H300.116C301.889 47.9318 303.363 47.5985 304.537 46.9318C305.711 46.2576 306.59 45.2841 307.173 44.0114C307.757 42.7311 308.048 41.1705 308.048 39.3295C308.048 37.5038 307.757 35.9545 307.173 34.6818C306.598 33.4091 305.738 32.4432 304.594 31.7841C303.45 31.125 302.029 30.7955 300.332 30.7955H296.287V47.9318Z" fill="black" style="fill:black;fill-opacity:1;"/>
<path d="M34.432 64.576C35.328 64.576 36.064 64.6987 36.64 64.944C37.2267 65.1787 37.6587 65.536 37.936 66.016C38.224 66.496 38.368 67.0987 38.368 67.824C38.368 68.432 38.2613 68.9387 38.048 69.344C37.8453 69.7493 37.5787 70.0747 37.248 70.32C36.928 70.5547 36.5867 70.7413 36.224 70.88L39.2 76H37.536L34.944 71.28H32.88V76H31.456V64.576H34.432ZM34.352 65.824H32.88V70.064H34.416C34.992 70.064 35.4613 69.984 35.824 69.824C36.1973 69.6533 36.4693 69.408 36.64 69.088C36.8107 68.768 36.896 68.368 36.896 67.888C36.896 67.3867 36.8053 66.9867 36.624 66.688C36.4427 66.3893 36.16 66.1707 35.776 66.032C35.4027 65.8933 34.928 65.824 34.352 65.824ZM46.8783 76H40.8623V64.576H46.8783V65.84H42.2863V69.408H46.6063V70.656H42.2863V74.736H46.8783V76ZM55.3493 72.944C55.3493 73.6267 55.1893 74.208 54.8693 74.688C54.5599 75.1573 54.1173 75.52 53.5413 75.776C52.9759 76.032 52.2986 76.16 51.5093 76.16C51.1146 76.16 50.7306 76.1387 50.3573 76.096C49.9946 76.0533 49.6586 75.9947 49.3493 75.92C49.0506 75.8347 48.7839 75.7333 48.5493 75.616V74.24C48.9226 74.4107 49.3759 74.5653 49.9093 74.704C50.4533 74.8427 51.0079 74.912 51.5733 74.912C52.0959 74.912 52.5279 74.8373 52.8693 74.688C53.2213 74.5387 53.4826 74.3253 53.6533 74.048C53.8346 73.7707 53.9253 73.4453 53.9253 73.072C53.9253 72.6987 53.8453 72.384 53.6853 72.128C53.5359 71.872 53.2799 71.6373 52.9173 71.424C52.5546 71.2 52.0586 70.9653 51.4293 70.72C50.9813 70.5387 50.5866 70.3467 50.2453 70.144C49.9039 69.9307 49.6159 69.6907 49.3813 69.424C49.1466 69.1573 48.9706 68.8533 48.8533 68.512C48.7359 68.1707 48.6773 67.776 48.6773 67.328C48.6773 66.72 48.8213 66.2027 49.1093 65.776C49.4079 65.3387 49.8133 65.0027 50.3253 64.768C50.8479 64.5333 51.4506 64.416 52.1333 64.416C52.7199 64.416 53.2586 64.4747 53.7493 64.592C54.2399 64.7093 54.6933 64.864 55.1093 65.056L54.6613 66.288C54.2773 66.1173 53.8666 65.9733 53.4293 65.856C53.0026 65.7387 52.5599 65.68 52.1013 65.68C51.6639 65.68 51.2959 65.7493 50.9973 65.888C50.7093 66.0267 50.4906 66.224 50.3413 66.48C50.1919 66.7253 50.1173 67.0133 50.1173 67.344C50.1173 67.728 50.1919 68.048 50.3413 68.304C50.4906 68.56 50.7359 68.7893 51.0773 68.992C51.4186 69.1947 51.8719 69.4133 52.4373 69.648C53.0666 69.8933 53.5946 70.16 54.0213 70.448C54.4586 70.7253 54.7893 71.0613 55.0133 71.456C55.2373 71.8507 55.3493 72.3467 55.3493 72.944ZM60.5909 76H56.6389V75.168L57.9029 74.864V65.728L56.6389 65.408V64.576H60.5909V65.408L59.3269 65.728V74.864L60.5909 75.168V76ZM71.2831 70.176C71.2831 71.456 71.0591 72.528 70.6111 73.392C70.1631 74.256 69.5178 74.9067 68.6751 75.344C67.8431 75.7813 66.8351 76 65.6511 76H62.6591V64.576H65.9711C67.0591 64.576 67.9978 64.7893 68.7871 65.216C69.5871 65.6427 70.2005 66.272 70.6271 67.104C71.0645 67.9253 71.2831 68.9493 71.2831 70.176ZM69.7791 70.224C69.7791 69.2107 69.6245 68.3787 69.3151 67.728C69.0058 67.0773 68.5525 66.5973 67.9551 66.288C67.3685 65.968 66.6485 65.808 65.7951 65.808H64.0831V74.768H65.5071C66.9365 74.768 68.0031 74.3893 68.7071 73.632C69.4218 72.864 69.7791 71.728 69.7791 70.224ZM79.6595 76H73.6435V64.576H79.6595V65.84H75.0675V69.408H79.3875V70.656H75.0675V74.736H79.6595V76ZM90.6105 76H88.9305L83.2665 66.512H83.2025C83.2132 66.704 83.2238 66.9173 83.2345 67.152C83.2558 67.3867 83.2718 67.6427 83.2825 67.92C83.2932 68.1867 83.3038 68.464 83.3145 68.752C83.3252 69.04 83.3305 69.328 83.3305 69.616V76H82.0185V64.576H83.6825L89.3305 74.032H89.3945C89.3838 73.904 89.3732 73.728 89.3625 73.504C89.3518 73.2693 89.3412 73.0133 89.3305 72.736C89.3198 72.448 89.3092 72.1547 89.2985 71.856C89.2878 71.5573 89.2825 71.28 89.2825 71.024V64.576H90.6105V76ZM98.1105 65.68C97.5452 65.68 97.0385 65.7867 96.5905 66C96.1425 66.2027 95.7585 66.5067 95.4385 66.912C95.1292 67.3067 94.8892 67.792 94.7185 68.368C94.5585 68.9333 94.4785 69.5733 94.4785 70.288C94.4785 71.2267 94.6118 72.0427 94.8785 72.736C95.1452 73.4293 95.5452 73.9627 96.0785 74.336C96.6225 74.7093 97.2945 74.896 98.0945 74.896C98.5638 74.896 99.0065 74.8533 99.4225 74.768C99.8492 74.6827 100.271 74.576 100.687 74.448V75.696C100.281 75.856 99.8652 75.9733 99.4385 76.048C99.0118 76.1227 98.4998 76.16 97.9025 76.16C96.8038 76.16 95.8865 75.92 95.1505 75.44C94.4252 74.96 93.8812 74.2773 93.5185 73.392C93.1558 72.5067 92.9745 71.4667 92.9745 70.272C92.9745 69.408 93.0865 68.6187 93.3105 67.904C93.5345 67.1893 93.8652 66.5707 94.3025 66.048C94.7398 65.5253 95.2785 65.1253 95.9185 64.848C96.5585 64.56 97.2945 64.416 98.1265 64.416C98.6705 64.416 99.1985 64.4747 99.7105 64.592C100.223 64.7093 100.687 64.8747 101.102 65.088L100.543 66.304C100.212 66.144 99.8385 66 99.4225 65.872C99.0172 65.744 98.5798 65.68 98.1105 65.68ZM109.035 76H103.019V64.576H109.035V65.84H104.443V69.408H108.763V70.656H104.443V74.736H109.035V76ZM117.506 72.944C117.506 73.6267 117.346 74.208 117.026 74.688C116.716 75.1573 116.274 75.52 115.698 75.776C115.132 76.032 114.455 76.16 113.666 76.16C113.271 76.16 112.887 76.1387 112.514 76.096C112.151 76.0533 111.815 75.9947 111.506 75.92C111.207 75.8347 110.94 75.7333 110.706 75.616V74.24C111.079 74.4107 111.532 74.5653 112.066 74.704C112.61 74.8427 113.164 74.912 113.73 74.912C114.252 74.912 114.684 74.8373 115.026 74.688C115.378 74.5387 115.639 74.3253 115.81 74.048C115.991 73.7707 116.082 73.4453 116.082 73.072C116.082 72.6987 116.002 72.384 115.842 72.128C115.692 71.872 115.436 71.6373 115.074 71.424C114.711 71.2 114.215 70.9653 113.586 70.72C113.138 70.5387 112.743 70.3467 112.402 70.144C112.06 69.9307 111.772 69.6907 111.538 69.424C111.303 69.1573 111.127 68.8533 111.01 68.512C110.892 68.1707 110.834 67.776 110.834 67.328C110.834 66.72 110.978 66.2027 111.266 65.776C111.564 65.3387 111.97 65.0027 112.482 64.768C113.004 64.5333 113.607 64.416 114.29 64.416C114.876 64.416 115.415 64.4747 115.906 64.592C116.396 64.7093 116.85 64.864 117.266 65.056L116.818 66.288C116.434 66.1173 116.023 65.9733 115.586 65.856C115.159 65.7387 114.716 65.68 114.258 65.68C113.82 65.68 113.452 65.7493 113.154 65.888C112.866 66.0267 112.647 66.224 112.498 66.48C112.348 66.7253 112.274 67.0133 112.274 67.344C112.274 67.728 112.348 68.048 112.498 68.304C112.647 68.56 112.892 68.7893 113.234 68.992C113.575 69.1947 114.028 69.4133 114.594 69.648C115.223 69.8933 115.751 70.16 116.178 70.448C116.615 70.7253 116.946 71.0613 117.17 71.456C117.394 71.8507 117.506 72.3467 117.506 72.944Z" fill="black" style="fill:black;fill-opacity:1;"/>
</svg>
