<svg width="197" height="105" viewBox="0 0 197 105" fill="none" xmlns="http://www.w3.org/2000/svg">
<rect width="197" height="105" fill="white" style="fill:white;fill-opacity:1;"/>
<path d="M49.79 48.7266H48.0767C47.3498 48.7266 46.8258 48.5425 46.5049 48.1743C46.1839 47.7967 46.0234 47.3011 46.0234 46.6875C46.0234 45.3281 47.0382 44.6484 49.0679 44.6484C50.9748 44.6484 52.4097 44.9316 53.3726 45.498L52.5513 46.1211C51.8905 45.819 50.7293 45.668 49.0679 45.668C48.256 45.668 47.7085 45.7576 47.4253 45.937C47.1515 46.1164 47.0146 46.3665 47.0146 46.6875C47.0146 47.0085 47.0902 47.2586 47.2412 47.438C47.3923 47.6174 47.6707 47.707 48.0767 47.707H49.8325C51.1069 47.707 52.2539 47.9242 53.2734 48.3584C54.3024 48.7926 55.1473 49.3874 55.8081 50.1426C56.4689 50.8883 56.974 51.7521 57.3232 52.7339C57.6725 53.7062 57.8472 54.7493 57.8472 55.8633C57.8472 56.7695 57.7197 57.6286 57.4648 58.4404C57.21 59.2523 56.8229 59.998 56.3037 60.6777C55.7939 61.3574 55.1756 61.9474 54.4487 62.4478C53.7313 62.9386 52.8722 63.321 51.8716 63.5947C50.8804 63.8779 49.8042 64.0195 48.6431 64.0195C46.8211 64.0195 45.1125 63.741 43.5171 63.1841C41.9312 62.6366 40.6095 61.8672 39.5522 60.876L40.3735 60.2671C41.3364 61.1356 42.54 61.8105 43.9844 62.292C45.4382 62.764 46.991 63 48.6431 63C49.9364 63 51.1022 62.8159 52.1406 62.4478C53.1885 62.0701 54.0475 61.5557 54.7178 60.9043C55.3975 60.2529 55.9167 59.4977 56.2754 58.6387C56.6436 57.7796 56.8276 56.8545 56.8276 55.8633C56.8276 54.5511 56.5633 53.3664 56.0347 52.3091C55.506 51.2424 54.6989 50.3786 53.6133 49.7178C52.5371 49.057 51.2627 48.7266 49.79 48.7266ZM48.0767 49.7461H49.6909C51.6073 49.7461 53.1035 50.3314 54.1797 51.502C55.2653 52.6725 55.8081 54.1263 55.8081 55.8633C55.8081 57.6286 55.1803 59.0918 53.9248 60.2529C52.6693 61.4046 50.9087 61.9805 48.6431 61.9805C47.1326 61.9805 45.7214 61.7728 44.4092 61.3574C43.097 60.9421 42.0067 60.3568 41.1382 59.6016L41.9312 58.9644C42.7052 59.5968 43.6776 60.0877 44.8481 60.437C46.0282 60.7863 47.2931 60.9609 48.6431 60.9609C50.6349 60.9609 52.1548 60.4842 53.2026 59.5308C54.2599 58.5773 54.7886 57.3548 54.7886 55.8633C54.7886 54.3906 54.3449 53.1729 53.4575 52.21C52.5796 51.2471 51.3193 50.7656 49.6768 50.7656H48.0767C46.6984 50.7656 45.6647 50.388 44.9756 49.6328C44.2865 48.8776 43.9419 47.8958 43.9419 46.6875C43.9419 45.4792 44.3667 44.4974 45.2163 43.7422C46.0754 42.987 47.3592 42.6094 49.0679 42.6094C50.2668 42.6094 51.3807 42.751 52.4097 43.0342C53.4386 43.3079 54.2882 43.7044 54.9585 44.2236L54.1514 44.8467C52.9714 44.0348 51.2769 43.6289 49.0679 43.6289C47.6424 43.6289 46.5993 43.9121 45.9385 44.4785C45.2871 45.0355 44.9614 45.7718 44.9614 46.6875C44.9614 47.6126 45.2021 48.3537 45.6836 48.9106C46.1745 49.4676 46.9722 49.7461 48.0767 49.7461ZM48.0767 51.7852H49.6343C51.0125 51.7852 52.0462 52.1675 52.7354 52.9321C53.4245 53.6968 53.769 54.6738 53.769 55.8633C53.769 57.0716 53.3395 58.0534 52.4805 58.8086C51.6309 59.5638 50.3517 59.9414 48.6431 59.9414C47.4442 59.9414 46.3255 59.8045 45.2871 59.5308C44.2581 59.2476 43.4085 58.8464 42.7383 58.3271L43.5454 57.7041C44.7254 58.516 46.4246 58.9219 48.6431 58.9219C50.0685 58.9219 51.1069 58.6434 51.7583 58.0864C52.4191 57.52 52.7495 56.779 52.7495 55.8633C52.7495 54.9476 52.5041 54.2113 52.0132 53.6543C51.5223 53.0879 50.7246 52.8047 49.6201 52.8047H48.0767C46.1414 52.8047 44.6263 52.2288 43.5312 51.0771C42.4456 49.916 41.9028 48.4528 41.9028 46.6875C41.9028 44.9222 42.5306 43.4637 43.7861 42.312C45.0417 41.1509 46.8022 40.5703 49.0679 40.5703C50.5783 40.5703 51.9849 40.778 53.2876 41.1934C54.5998 41.6087 55.6901 42.194 56.5586 42.9492L55.7656 43.5864C54.9915 42.9539 54.0192 42.4631 52.8486 42.1138C51.6781 41.7645 50.4178 41.5898 49.0679 41.5898C47.076 41.5898 45.5514 42.0666 44.4941 43.02C43.4463 43.9735 42.9224 45.196 42.9224 46.6875C42.9224 48.1696 43.366 49.3921 44.2534 50.355C45.1408 51.3084 46.4152 51.7852 48.0767 51.7852ZM48.0767 53.8242H49.6343C50.3612 53.8242 50.8851 54.013 51.2061 54.3906C51.527 54.7682 51.6875 55.2591 51.6875 55.8633C51.6875 57.2227 50.6727 57.9023 48.6431 57.9023C46.7267 57.9023 45.2871 57.6191 44.3242 57.0527L45.1455 56.4297C45.8063 56.7318 46.9722 56.8828 48.6431 56.8828C49.4549 56.8828 49.9977 56.7931 50.2715 56.6138C50.5547 56.4344 50.6963 56.1842 50.6963 55.8633C50.6963 55.5518 50.616 55.3063 50.4556 55.127C50.3045 54.9382 50.0213 54.8438 49.606 54.8438H48.0767C46.7739 54.8438 45.5939 54.6313 44.5366 54.2065C43.4888 53.7817 42.625 53.1965 41.9453 52.4507C41.2751 51.7049 40.7606 50.8411 40.4019 49.8594C40.0431 48.8776 39.8638 47.8203 39.8638 46.6875C39.8638 45.7812 39.9912 44.9222 40.2461 44.1104C40.501 43.2985 40.8833 42.5527 41.3931 41.873C41.9123 41.1934 42.5306 40.6081 43.248 40.1172C43.9749 39.6169 44.834 39.2298 45.8252 38.9561C46.8258 38.6729 47.9067 38.5312 49.0679 38.5312C50.8898 38.5312 52.5938 38.8097 54.1797 39.3667C55.7656 39.9142 57.0872 40.6836 58.1445 41.6748L57.3232 42.2837C56.3604 41.4152 55.1567 40.745 53.7124 40.2729C52.2681 39.7915 50.7199 39.5508 49.0679 39.5508C47.7746 39.5508 46.604 39.7396 45.5562 40.1172C44.5177 40.4854 43.6587 40.9951 42.979 41.6465C42.3088 42.2979 41.7896 43.0531 41.4214 43.9121C41.0627 44.7712 40.8833 45.6963 40.8833 46.6875C40.8833 48.0186 41.1523 49.2174 41.6904 50.2842C42.2285 51.3509 43.0498 52.21 44.1543 52.8613C45.2588 53.5033 46.5662 53.8242 48.0767 53.8242ZM82.5425 39.5508H83.562V63H82.5425V39.5508ZM60.1128 39.5508H61.1323V63H60.1128V39.5508ZM80.5034 39.5508H81.5229V63H80.5034V39.5508ZM78.4644 39.5508H79.4839V63H78.4644V39.5508ZM76.4253 39.5508H77.4448V63H76.4253V53.8101H67.2495V63H66.23V39.5508H67.2495V48.7124H76.4253V39.5508ZM64.1909 39.5508H65.2104V63H64.1909V39.5508ZM62.1519 39.5508H63.1714V63H62.1519V39.5508ZM76.4253 52.7905V51.771H67.2495V52.7905H76.4253ZM76.4253 50.7515V49.7319H67.2495V50.7515H76.4253ZM94.5078 47.3105C93.4128 48.4056 92.8652 49.7272 92.8652 51.2754C92.8652 52.8236 93.4128 54.1452 94.5078 55.2402C95.6029 56.3353 96.9245 56.8828 98.4727 56.8828C100.021 56.8828 101.342 56.3353 102.438 55.2402C103.533 54.1452 104.08 52.8236 104.08 51.2754C104.08 49.7272 103.533 48.4056 102.438 47.3105C101.342 46.2155 100.021 45.668 98.4727 45.668C96.9245 45.668 95.6029 46.2155 94.5078 47.3105ZM92.3696 53.8525C92.0203 53.0312 91.8457 52.1722 91.8457 51.2754C91.8457 50.3786 92.0203 49.5243 92.3696 48.7124C92.7189 47.8911 93.1909 47.1831 93.7856 46.5884C94.3804 45.9937 95.0837 45.5216 95.8955 45.1724C96.7168 44.8231 97.5758 44.6484 98.4727 44.6484C99.3695 44.6484 100.224 44.8231 101.036 45.1724C101.857 45.5216 102.565 45.9937 103.16 46.5884C103.754 47.1831 104.226 47.8911 104.576 48.7124C104.925 49.5243 105.1 50.3786 105.1 51.2754C105.1 52.1722 104.925 53.0312 104.576 53.8525C104.226 54.6644 103.754 55.3677 103.16 55.9624C102.565 56.5571 101.857 57.0291 101.036 57.3784C100.224 57.7277 99.3695 57.9023 98.4727 57.9023C97.5758 57.9023 96.7168 57.7277 95.8955 57.3784C95.0837 57.0291 94.3804 56.5571 93.7856 55.9624C93.1909 55.3677 92.7189 54.6644 92.3696 53.8525ZM91.8457 47.438C91.166 48.6086 90.8262 49.8877 90.8262 51.2754C90.8262 52.6631 91.166 53.9422 91.8457 55.1128C92.5348 56.2834 93.4647 57.2132 94.6353 57.9023C95.8058 58.582 97.085 58.9219 98.4727 58.9219C99.8604 58.9219 101.139 58.582 102.31 57.9023C103.481 57.2132 104.406 56.2834 105.085 55.1128C105.775 53.9422 106.119 52.6631 106.119 51.2754C106.119 49.8877 105.775 48.6086 105.085 47.438C104.406 46.2674 103.481 45.3423 102.31 44.6626C101.139 43.9735 99.8604 43.6289 98.4727 43.6289C97.085 43.6289 95.8058 43.9735 94.6353 44.6626C93.4647 45.3423 92.5348 46.2674 91.8457 47.438ZM90.9678 55.6226C90.1937 54.2915 89.8066 52.8424 89.8066 51.2754C89.8066 49.7083 90.1937 48.2593 90.9678 46.9282C91.7419 45.5972 92.7944 44.5446 94.1255 43.7705C95.4565 42.9964 96.9056 42.6094 98.4727 42.6094C100.04 42.6094 101.489 42.9964 102.82 43.7705C104.151 44.5446 105.203 45.5972 105.978 46.9282C106.752 48.2593 107.139 49.7083 107.139 51.2754C107.139 52.8424 106.752 54.2915 105.978 55.6226C105.203 56.9536 104.151 58.0062 102.82 58.7803C101.489 59.5544 100.04 59.9414 98.4727 59.9414C96.9056 59.9414 95.4565 59.5544 94.1255 58.7803C92.7944 58.0062 91.7419 56.9536 90.9678 55.6226ZM89.5518 47.5088C89.042 48.7077 88.7871 49.9632 88.7871 51.2754C88.7871 52.5876 89.042 53.8431 89.5518 55.042C90.0615 56.2409 90.7459 57.2746 91.605 58.1431C92.4735 59.0021 93.5072 59.6865 94.7061 60.1963C95.9049 60.7061 97.1605 60.9609 98.4727 60.9609C99.7848 60.9609 101.04 60.7061 102.239 60.1963C103.438 59.6865 104.467 59.0021 105.326 58.1431C106.195 57.2746 106.884 56.2409 107.394 55.042C107.903 53.8431 108.158 52.5876 108.158 51.2754C108.158 49.9632 107.903 48.7077 107.394 47.5088C106.884 46.3099 106.195 45.2809 105.326 44.4219C104.467 43.5534 103.438 42.8643 102.239 42.3545C101.04 41.8447 99.7848 41.5898 98.4727 41.5898C97.1605 41.5898 95.9049 41.8447 94.7061 42.3545C93.5072 42.8643 92.4735 43.5534 91.605 44.4219C90.7459 45.2809 90.0615 46.3099 89.5518 47.5088ZM89.1978 56.6421C88.2443 54.9995 87.7676 53.2106 87.7676 51.2754C87.7676 49.3402 88.2443 47.5513 89.1978 45.9087C90.1606 44.2661 91.4634 42.9681 93.106 42.0146C94.7485 41.0518 96.5374 40.5703 98.4727 40.5703C100.408 40.5703 102.197 41.0518 103.839 42.0146C105.482 42.9681 106.78 44.2661 107.733 45.9087C108.696 47.5513 109.178 49.3402 109.178 51.2754C109.178 53.2106 108.696 54.9995 107.733 56.6421C106.78 58.2847 105.482 59.5874 103.839 60.5503C102.197 61.5037 100.408 61.9805 98.4727 61.9805C96.5374 61.9805 94.7485 61.5037 93.106 60.5503C91.4634 59.5874 90.1606 58.2847 89.1978 56.6421ZM87.6685 46.73C87.0549 48.1743 86.748 49.6895 86.748 51.2754C86.748 52.8613 87.0549 54.3812 87.6685 55.835C88.2915 57.2793 89.127 58.5254 90.1748 59.5732C91.2227 60.6211 92.4688 61.4565 93.9131 62.0796C95.3669 62.6932 96.8867 63 98.4727 63C100.059 63 101.574 62.6932 103.018 62.0796C104.472 61.4565 105.723 60.6211 106.771 59.5732C107.818 58.5254 108.649 57.2793 109.263 55.835C109.886 54.3812 110.197 52.8613 110.197 51.2754C110.197 49.6895 109.886 48.1743 109.263 46.73C108.649 45.2762 107.818 44.0254 106.771 42.9775C105.723 41.9297 104.472 41.099 103.018 40.4854C101.574 39.8623 100.059 39.5508 98.4727 39.5508C96.8867 39.5508 95.3669 39.8623 93.9131 40.4854C92.4688 41.099 91.2227 41.9297 90.1748 42.9775C89.127 44.0254 88.2915 45.2762 87.6685 46.73ZM86.7339 56.2314C86.0636 54.6549 85.7285 53.0029 85.7285 51.2754C85.7285 49.5479 86.0636 47.9006 86.7339 46.3335C87.4136 44.757 88.3198 43.4023 89.4526 42.2695C90.5949 41.1273 91.9495 40.221 93.5166 39.5508C95.0931 38.8711 96.7451 38.5312 98.4727 38.5312C100.2 38.5312 101.847 38.8711 103.415 39.5508C104.991 40.221 106.346 41.1273 107.479 42.2695C108.621 43.4023 109.527 44.757 110.197 46.3335C110.877 47.9006 111.217 49.5479 111.217 51.2754C111.217 53.0029 110.877 54.6549 110.197 56.2314C109.527 57.7985 108.621 59.1532 107.479 60.2954C106.346 61.4282 104.991 62.3298 103.415 63C101.847 63.6797 100.2 64.0195 98.4727 64.0195C96.7451 64.0195 95.0931 63.6797 93.5166 63C91.9495 62.3298 90.5949 61.4282 89.4526 60.2954C88.3198 59.1532 87.4136 57.7985 86.7339 56.2314ZM130.206 54.4473L131.225 52.5215V63H130.206V54.4473ZM132.245 50.5391L133.264 48.6133V63H132.245V50.5391ZM134.284 46.6875L135.303 44.7476V63H134.284V46.6875ZM127.444 53.9658L126.864 52.9038L133.887 39.5508H135.034L127.444 53.9658ZM126.269 51.7427L125.674 50.6665L131.565 39.5508H132.726L126.269 51.7427ZM119.444 52.6348L120.463 54.5605V63H119.444V52.6348ZM117.405 48.7549L118.424 50.6807V63H117.405V48.7549ZM115.366 44.875L116.385 46.8149V63H115.366V44.875ZM123.607 56.8828H122.46L114.346 41.4907V63H113.327V39.5508H114.474L123.607 56.8828ZM125.915 56.8828H124.754L115.635 39.5508H116.796L125.915 56.8828ZM136.323 41.4907L128.209 56.8828H127.048L117.943 39.5508H119.09L127.643 55.8066L136.181 39.5508H137.342V63H136.323V41.4907ZM150.157 56.1182L150.568 55.0986H154.051L154.462 56.1182H150.157ZM149.364 58.1572L149.761 57.1377H154.844L155.283 58.1572H149.364ZM148.571 60.1963L148.968 59.1768H155.651L156.076 60.1963H148.571ZM140.288 63H139.183L148.458 39.5508H149.562L158.823 63H157.733L149.01 40.9243L140.288 63ZM149.138 43.3457L149.718 44.6484L142.468 63H141.378L149.138 43.3457ZM150.271 46.0361L150.809 47.438L144.677 63H143.573L150.271 46.0361ZM151.347 48.8398L151.885 50.27L146.858 63H145.768L151.347 48.8398ZM165.408 63H164.303L155.042 39.5508H156.133L165.408 63ZM153.938 39.5508L163.213 63H162.123L152.848 39.5508H153.938ZM151.743 39.5508L161.018 63H159.914L150.653 39.5508H151.743Z" fill="black" style="fill:black;fill-opacity:1;"/>
<path d="M81.7383 69.7451C81.6439 69.4619 81.71 69.1598 81.9365 68.8389C82.1631 68.5179 82.484 68.1969 82.8994 67.876C83.3148 67.5361 83.7773 67.1963 84.2871 66.8564C84.8158 66.5166 85.3161 66.1862 85.7881 65.8652C86.279 65.5443 86.7038 65.2422 87.0625 64.959C87.4401 64.6569 87.695 64.3737 87.8271 64.1094C88.1104 63.543 88.3464 62.8822 88.5352 62.127C88.7428 61.3717 88.875 60.6449 88.9316 59.9463C89.0072 59.2288 89.0072 58.5869 88.9316 58.0205C88.8561 57.4352 88.6768 57.0387 88.3936 56.8311C88.1104 56.6234 87.7233 56.6517 87.2324 56.916C86.7415 57.1803 86.1185 57.7751 85.3633 58.7002C85.1556 58.9645 84.9102 59.4365 84.627 60.1162C84.3438 60.777 84.0417 61.5133 83.7207 62.3252C83.3997 63.137 83.0693 63.9583 82.7295 64.7891C82.3896 65.6009 82.0498 66.29 81.71 66.8564C81.389 67.4229 81.0775 67.8005 80.7754 67.9893C80.4733 68.1592 80.209 68.0081 79.9824 67.5361C79.9824 67.404 79.9824 67.1774 79.9824 66.8564C80.0013 66.5355 80.0107 66.1956 80.0107 65.8369C80.0107 65.4593 80.0013 65.11 79.9824 64.7891C79.9824 64.4681 79.9824 64.2415 79.9824 64.1094C79.9258 62.8255 79.8597 61.57 79.7842 60.3428C79.7087 59.1156 79.6237 57.8978 79.5293 56.6895C79.4538 55.4811 79.3688 54.2728 79.2744 53.0645C79.18 51.8561 79.0856 50.6195 78.9912 49.3545C78.9535 48.807 78.9723 48.4388 79.0479 48.25C79.1234 48.0612 79.2272 48.0046 79.3594 48.0801C79.4915 48.1367 79.6426 48.3066 79.8125 48.5898C80.0013 48.873 80.1712 49.2129 80.3223 49.6094C80.4922 50.0059 80.6338 50.4401 80.7471 50.9121C80.8604 51.3841 80.9264 51.8467 80.9453 52.2998C80.9453 52.5264 80.9548 52.8851 80.9736 53.376C81.0114 53.8669 81.0492 54.4238 81.0869 55.0469C81.1247 55.651 81.1624 56.293 81.2002 56.9727C81.238 57.6523 81.2663 58.3037 81.2852 58.9268C81.3229 59.5309 81.3512 60.0785 81.3701 60.5693C81.4079 61.0602 81.4362 61.4189 81.4551 61.6455C81.8704 61.3434 82.2197 60.9753 82.5029 60.541C82.805 60.0879 83.0882 59.6348 83.3525 59.1816C83.6357 58.7096 83.9284 58.2565 84.2305 57.8223C84.5514 57.388 84.929 57.0199 85.3633 56.7178C86.5716 55.9626 87.5723 55.5566 88.3652 55.5C89.1582 55.4245 89.7624 55.6038 90.1777 56.0381C90.612 56.4535 90.8669 57.0576 90.9424 57.8506C91.0179 58.6436 90.9424 59.5309 90.7158 60.5127C90.4893 61.4756 90.1211 62.4857 89.6113 63.543C89.1204 64.5814 88.5068 65.5632 87.7705 66.4883C87.0531 67.3945 86.2223 68.1875 85.2783 68.8672C84.3343 69.5469 83.3053 70 82.1914 70.2266L81.9365 70C81.8232 69.8678 81.7572 69.7829 81.7383 69.7451ZM92.7266 69.5186C92.349 68.7256 92.1413 67.9232 92.1035 67.1113C92.0846 66.2995 92.1318 65.4688 92.2451 64.6191C92.264 64.3548 92.3112 63.9583 92.3867 63.4297C92.4622 62.901 92.5472 62.3158 92.6416 61.6738C92.736 61.0319 92.8398 60.3522 92.9531 59.6348C93.0664 58.9173 93.1702 58.2376 93.2646 57.5957C93.359 56.9538 93.444 56.3874 93.5195 55.8965C93.6139 55.3867 93.68 55.0091 93.7178 54.7637C93.8688 53.9707 94.0293 53.3005 94.1992 52.7529C94.388 52.1865 94.6335 51.7523 94.9355 51.4502C95.2565 51.1481 95.6624 50.9876 96.1533 50.9688C96.6631 50.9499 97.3145 51.0726 98.1074 51.3369C98.2018 51.3558 98.3057 51.4313 98.4189 51.5635C98.5322 51.6768 98.5983 51.7617 98.6172 51.8184C98.6549 52.0638 98.721 52.4414 98.8154 52.9512C98.9287 53.4609 99.0514 54.0462 99.1836 54.707C99.3158 55.349 99.4479 56.0286 99.5801 56.7461C99.7311 57.4447 99.8727 58.1243 100.005 58.7852C100.137 59.4271 100.25 60.0029 100.345 60.5127C100.458 61.0225 100.543 61.4001 100.6 61.6455C100.883 62.986 101.232 63.9206 101.647 64.4492C102.063 64.959 102.507 65.2233 102.979 65.2422C103.451 65.2611 103.932 65.11 104.423 64.7891C104.933 64.4492 105.433 64.0999 105.924 63.7412C106.415 63.3636 106.877 63.0426 107.312 62.7783C107.746 62.514 108.123 62.4668 108.444 62.6367C108.444 62.9954 108.359 63.3447 108.189 63.6846C108.02 64.0244 107.812 64.3454 107.566 64.6475C107.34 64.9307 107.085 65.195 106.802 65.4404C106.519 65.6859 106.254 65.8936 106.009 66.0635C104.951 66.762 104.064 67.1302 103.347 67.168C102.648 67.2057 102.053 67.0452 101.562 66.6865C101.072 66.3278 100.675 65.8369 100.373 65.2139C100.071 64.5908 99.7972 63.9583 99.5518 63.3164C99.3252 62.6745 99.0986 62.1081 98.8721 61.6172C98.6644 61.1074 98.4095 60.7865 98.1074 60.6543C98.0508 60.8997 97.9281 61.3245 97.7393 61.9287C97.5693 62.5329 97.3805 63.1748 97.1729 63.8545C96.9652 64.5342 96.7669 65.1761 96.5781 65.7803C96.3893 66.3844 96.2572 66.8092 96.1816 67.0547C96.1439 67.1491 96.0589 67.3285 95.9268 67.5928C95.8135 67.8571 95.6624 68.1497 95.4736 68.4707C95.2848 68.7728 95.0677 69.0749 94.8223 69.377C94.5957 69.6602 94.3597 69.8773 94.1143 70.0283C93.8688 70.1982 93.6234 70.2549 93.3779 70.1982C93.1325 70.1416 92.9154 69.915 92.7266 69.5186ZM94.1992 61.1641C94.1615 61.3906 94.1331 61.806 94.1143 62.4102C94.1143 63.0143 94.1143 63.6562 94.1143 64.3359C94.1143 65.0156 94.1143 65.6576 94.1143 66.2617C94.1331 66.8659 94.1615 67.2907 94.1992 67.5361C94.86 66.5355 95.4548 65.3743 95.9834 64.0527C96.512 62.7122 96.9085 61.334 97.1729 59.918C97.4561 58.4831 97.5693 57.0671 97.5127 55.6699C97.4561 54.2539 97.1729 52.9701 96.6631 51.8184C96.3421 52.4036 96.04 53.14 95.7568 54.0273C95.4736 54.9147 95.2282 55.821 95.0205 56.7461C94.8128 57.6523 94.6335 58.5114 94.4824 59.3232C94.3503 60.1162 94.2559 60.7298 94.1992 61.1641ZM117.932 78.3545C117.46 78.0335 117.129 77.6087 116.94 77.0801C116.771 76.5514 116.695 75.9661 116.714 75.3242C116.733 74.6823 116.827 74.0026 116.997 73.2852C117.167 72.5866 117.365 71.9069 117.592 71.2461C117.818 70.5853 118.054 69.9717 118.3 69.4053C118.545 68.8389 118.753 68.3763 118.923 68.0176C118.998 67.8477 119.121 67.5833 119.291 67.2246C119.461 66.8659 119.659 66.46 119.886 66.0068L121.302 63.1748C121.528 62.7217 121.736 62.3158 121.925 61.957C122.114 61.5983 122.255 61.334 122.35 61.1641C122.444 60.2767 122.378 59.5781 122.151 59.0684C121.944 58.5586 121.642 58.2093 121.245 58.0205C120.849 57.8317 120.386 57.7845 119.857 57.8789C119.348 57.9733 118.819 58.1715 118.271 58.4736C117.743 58.7757 117.224 59.1628 116.714 59.6348C116.223 60.0879 115.808 60.5977 115.468 61.1641C115.354 61.2585 115.156 61.485 114.873 61.8438C114.59 62.1836 114.25 62.6084 113.854 63.1182C113.457 63.609 113.013 64.1471 112.522 64.7324C112.05 65.3177 111.56 65.8936 111.05 66.46C110.559 67.0075 110.077 67.5173 109.605 67.9893C109.133 68.4613 108.69 68.8294 108.274 69.0938C107.878 69.3581 107.529 69.4997 107.227 69.5186C106.943 69.5374 106.745 69.3675 106.632 69.0088C106.613 68.9899 106.594 68.9333 106.575 68.8389C106.575 68.7445 106.575 68.6501 106.575 68.5557C106.575 68.4424 106.575 68.3385 106.575 68.2441C106.594 68.1497 106.613 68.0742 106.632 68.0176C106.67 67.8288 106.745 67.4323 106.858 66.8281C106.991 66.224 107.132 65.516 107.283 64.7041C107.453 63.8923 107.632 63.0238 107.821 62.0986C108.01 61.1735 108.18 60.305 108.331 59.4932C108.501 58.6813 108.652 57.9827 108.784 57.3975C108.916 56.7933 109.011 56.3968 109.067 56.208C109.105 56.0381 109.228 55.8115 109.436 55.5283C109.643 55.2451 109.879 55.0091 110.144 54.8203C110.408 54.6315 110.663 54.5465 110.908 54.5654C111.173 54.5843 111.38 54.8014 111.531 55.2168C111.342 55.5 111.125 55.9437 110.88 56.5479C110.634 57.152 110.389 57.8317 110.144 58.5869C109.917 59.3421 109.69 60.1445 109.464 60.9941C109.237 61.8249 109.039 62.6273 108.869 63.4014C108.718 64.1755 108.614 64.8929 108.558 65.5537C108.501 66.1956 108.51 66.696 108.586 67.0547C109.379 65.9785 110.266 64.8363 111.248 63.6279C112.23 62.4196 113.23 61.2773 114.25 60.2012C115.27 59.125 116.28 58.1904 117.28 57.3975C118.3 56.6045 119.234 56.0947 120.084 55.8682C120.952 55.6416 121.708 55.7738 122.35 56.2646C123.01 56.7367 123.501 57.709 123.822 59.1816L127.277 56.2363H128.75C128.92 56.765 128.91 57.1237 128.722 57.3125C128.552 57.5013 128.297 57.6523 127.957 57.7656C127.617 57.86 127.24 57.9733 126.824 58.1055C126.428 58.2188 126.088 58.4642 125.805 58.8418C125.54 59.2194 125.38 59.7764 125.323 60.5127C125.267 61.249 125.418 62.2874 125.776 63.6279C126.041 64.5719 126.22 65.5443 126.314 66.5449C126.428 67.5456 126.418 68.5368 126.286 69.5186C126.229 69.9528 126.078 70.5381 125.833 71.2744C125.606 72.0296 125.304 72.8132 124.927 73.625C124.549 74.4368 124.105 75.2298 123.596 76.0039C123.086 76.778 122.529 77.4199 121.925 77.9297C121.34 78.4395 120.707 78.751 120.027 78.8643C119.348 78.9964 118.649 78.8265 117.932 78.3545ZM118.413 75.8906C118.564 76.6081 118.81 77.0612 119.149 77.25C119.508 77.4388 119.914 77.4199 120.367 77.1934C120.82 76.9668 121.292 76.5609 121.783 75.9756C122.293 75.3903 122.756 74.6917 123.171 73.8799C123.605 73.068 123.973 72.1618 124.275 71.1611C124.577 70.1794 124.757 69.1693 124.813 68.1309C124.889 67.0924 124.813 66.0635 124.587 65.0439C124.36 64.0055 123.936 63.0332 123.312 62.127C122.878 62.4479 122.444 62.9388 122.01 63.5996C121.576 64.2604 121.16 65.0156 120.764 65.8652C120.386 66.7148 120.027 67.6211 119.688 68.584C119.348 69.528 119.064 70.4531 118.838 71.3594C118.63 72.2845 118.479 73.1436 118.385 73.9365C118.309 74.7295 118.319 75.3809 118.413 75.8906Z" fill="black" style="fill:black;fill-opacity:1;"/>
</svg>
